<?xml version="1.0" encoding="UTF-8" standalone="no"?>
<!-- Created with Inkscape (http://www.inkscape.org/) -->

<svg
   xmlns:dc="http://purl.org/dc/elements/1.1/"
   xmlns:cc="http://creativecommons.org/ns#"
   xmlns:rdf="http://www.w3.org/1999/02/22-rdf-syntax-ns#"
   xmlns:svg="http://www.w3.org/2000/svg"
   xmlns="http://www.w3.org/2000/svg"
   xmlns:sodipodi="http://sodipodi.sourceforge.net/DTD/sodipodi-0.dtd"
   xmlns:inkscape="http://www.inkscape.org/namespaces/inkscape"
   width="1200"
   height="1000"
   id="svg2"
   version="1.1"
   inkscape:version="0.48.2 r9819"
   sodipodi:docname="titan-logo-pieces-darkred.pdf"
   inkscape:export-filename="C:\Users\Ketrina\Pictures\Tinkerpop\TitanLogo-v2.png"
   inkscape:export-xdpi="72.00943"
   inkscape:export-ydpi="72.00943">
  <defs
     id="defs4">
    <inkscape:perspective
       sodipodi:type="inkscape:persp3d"
       inkscape:vp_x="0 : 500 : 1"
       inkscape:vp_y="0 : 1000 : 0"
       inkscape:vp_z="2000 : 500 : 1"
       inkscape:persp3d-origin="1000 : 333.33333 : 1"
       id="perspective263" />
    <inkscape:perspective
       id="perspective3851"
       inkscape:persp3d-origin="0.5 : 0.33333333 : 1"
       inkscape:vp_z="1 : 0.5 : 1"
       inkscape:vp_y="0 : 1000 : 0"
       inkscape:vp_x="0 : 0.5 : 1"
       sodipodi:type="inkscape:persp3d" />
    <inkscape:perspective
       id="perspective3851-1"
       inkscape:persp3d-origin="0.5 : 0.33333333 : 1"
       inkscape:vp_z="1 : 0.5 : 1"
       inkscape:vp_y="0 : 1000 : 0"
       inkscape:vp_x="0 : 0.5 : 1"
       sodipodi:type="inkscape:persp3d" />
    <inkscape:perspective
       id="perspective3851-7"
       inkscape:persp3d-origin="0.5 : 0.33333333 : 1"
       inkscape:vp_z="1 : 0.5 : 1"
       inkscape:vp_y="0 : 1000 : 0"
       inkscape:vp_x="0 : 0.5 : 1"
       sodipodi:type="inkscape:persp3d" />
    <inkscape:perspective
       id="perspective3851-4"
       inkscape:persp3d-origin="0.5 : 0.33333333 : 1"
       inkscape:vp_z="1 : 0.5 : 1"
       inkscape:vp_y="0 : 1000 : 0"
       inkscape:vp_x="0 : 0.5 : 1"
       sodipodi:type="inkscape:persp3d" />
    <inkscape:perspective
       id="perspective3851-0"
       inkscape:persp3d-origin="0.5 : 0.33333333 : 1"
       inkscape:vp_z="1 : 0.5 : 1"
       inkscape:vp_y="0 : 1000 : 0"
       inkscape:vp_x="0 : 0.5 : 1"
       sodipodi:type="inkscape:persp3d" />
    <inkscape:perspective
       id="perspective3851-9"
       inkscape:persp3d-origin="0.5 : 0.33333333 : 1"
       inkscape:vp_z="1 : 0.5 : 1"
       inkscape:vp_y="0 : 1000 : 0"
       inkscape:vp_x="0 : 0.5 : 1"
       sodipodi:type="inkscape:persp3d" />
    <inkscape:perspective
       id="perspective3851-48"
       inkscape:persp3d-origin="0.5 : 0.33333333 : 1"
       inkscape:vp_z="1 : 0.5 : 1"
       inkscape:vp_y="0 : 1000 : 0"
       inkscape:vp_x="0 : 0.5 : 1"
       sodipodi:type="inkscape:persp3d" />
    <inkscape:perspective
       id="perspective3093"
       inkscape:persp3d-origin="0.5 : 0.33333333 : 1"
       inkscape:vp_z="1 : 0.5 : 1"
       inkscape:vp_y="0 : 1000 : 0"
       inkscape:vp_x="0 : 0.5 : 1"
       sodipodi:type="inkscape:persp3d" />
    <inkscape:perspective
       id="perspective3250"
       inkscape:persp3d-origin="0.5 : 0.33333333 : 1"
       inkscape:vp_z="1 : 0.5 : 1"
       inkscape:vp_y="0 : 1000 : 0"
       inkscape:vp_x="0 : 0.5 : 1"
       sodipodi:type="inkscape:persp3d" />
    <inkscape:perspective
       id="perspective3407"
       inkscape:persp3d-origin="0.5 : 0.33333333 : 1"
       inkscape:vp_z="1 : 0.5 : 1"
       inkscape:vp_y="0 : 1000 : 0"
       inkscape:vp_x="0 : 0.5 : 1"
       sodipodi:type="inkscape:persp3d" />
  </defs>
  <sodipodi:namedview
     id="base"
     pagecolor="#ffffff"
     bordercolor="#666666"
     borderopacity="1.0"
     inkscape:pageopacity="0.0"
     inkscape:pageshadow="2"
     inkscape:zoom="0.5"
     inkscape:cx="68.923016"
     inkscape:cy="597.68485"
     inkscape:document-units="px"
     inkscape:current-layer="layer1"
     showgrid="false"
     inkscape:window-width="1440"
     inkscape:window-height="786"
     inkscape:window-x="2"
     inkscape:window-y="0"
     inkscape:window-maximized="0" />
  <metadata
     id="metadata7">
    <rdf:RDF>
      <cc:Work
         rdf:about="">
        <dc:format>image/svg+xml</dc:format>
        <dc:type
           rdf:resource="http://purl.org/dc/dcmitype/StillImage" />
        <dc:title></dc:title>
      </cc:Work>
    </rdf:RDF>
  </metadata>
  <g
     inkscape:label="Layer 1"
     inkscape:groupmode="layer"
     id="layer1"
     transform="translate(0,-52.362183)">
    <path
       style="fill:#656d6a;fill-opacity:1;stroke:#ffffff;stroke-width:1.78921783;stroke-linecap:butt;stroke-linejoin:miter;stroke-miterlimit:4;stroke-opacity:1;stroke-dasharray:none"
       d="m 494.21787,391.94699 c -14.9416,26.58252 -36.5038,49.01484 -62.375,65.61308 10e-5,0.01 -1e-4,0.0208 0,0.0308 0.048,6.06384 1.0705,11.02571 1.9375,14.17242 10.3492,5.59596 14.2263,4.0149 23.3125,11.48615 -13.452,-7.60813 -15.3774,-4.83854 -25,-8.64549 -10.6726,-0.60675 -35.9999,1.3742 -57.9375,21.98424 -12.7265,0.79351 -18.4709,2.3188 -22.8437,4.60064 16.681,3.68541 18.4021,2.70084 26.5312,10.37458 8.5856,9.30472 20.5314,23.83438 22.875,45.38881 -1.2261,5.7273 -2.5989,12.85119 -4.5937,20.3169 1.8446,-0.43588 3.4239,-1.38566 4.7187,-2.84066 0,-0.0102 0.02,-0.0224 0.031,-0.0308 2.4944,-3.19164 7.6551,-9.39949 17.5625,-20.00813 39.1232,-9.77468 59.3438,-31.18551 59.3438,-31.18551 0,0 9.3157,0.4467 15.4375,-10.12757 6.1215,-10.57427 8.1472,-29.30099 9.7812,-51.96555 1.4566,-20.2014 -6.9327,-60.57583 -8.7812,-69.16391 z m -48.375,102.91219 c 0,0 -7.115,14.65595 -21.4062,18.61867 -14.2912,3.96268 -29.169,0.96294 -32.375,-1.88348 10.4077,4.748 21.7829,5.18216 31.8437,1.45121 10.0608,-3.73096 21.9375,-18.1864 21.9375,-18.1864 z"
       id="path4010-2-5-5-0"
       inkscape:connector-curvature="0"
       sodipodi:nodetypes="ccccccccccccccccsccscsc"
       inkscape:export-filename="E:\TitanLogo-v4.png"
       inkscape:export-xdpi="299.90149"
       inkscape:export-ydpi="299.90149" />
    <path
       sodipodi:type="arc"
       style="fill:none;stroke:#49504d;stroke-width:5.15945721;stroke-miterlimit:4;stroke-opacity:1;stroke-dasharray:none"
       id="path3084-4-0-99"
       sodipodi:cx="357"
       sodipodi:cy="221.36218"
       sodipodi:rx="202"
       sodipodi:ry="194"
       d="m 559,221.36218 c 0,107.14324 -90.43848,194 -202,194 -111.56152,0 -202,-86.85676 -202,-194 0,-107.14324 90.43848,-193.999997 202,-193.999997 111.56152,0 202,86.856757 202,193.999997 z"
       transform="matrix(0.96371241,0.10771364,-0.10706419,0.96253956,0.34126585,44.857752)"
       inkscape:export-filename="E:\TitanLogo-v4.png"
       inkscape:export-xdpi="299.90149"
       inkscape:export-ydpi="299.90149" />
    <g
       id="g3867-7-2"
       transform="matrix(0.9776037,0,0,0.98362933,-57.083712,-4.7221964)"
       inkscape:export-filename="E:\TitanLogo-v4.png"
       inkscape:export-xdpi="299.90149"
       inkscape:export-ydpi="299.90149"
       style="fill-rule:evenodd;stroke:#a60c0c;stroke-opacity:1">
      <path
         inkscape:connector-curvature="0"
         id="path3826-9-1-0-5"
         d="m 303.87351,160.72424 -0.50441,50.69535 72.11285,-49.81069 76.74136,-3.28203 30.545,34.21812 42.95213,30.58815 -15.80866,57.92384 12.12279,79.92581 -20.9416,62.09053 -50.10042,-26.86342 2.77197,-75.60107 -64.42801,-62.81751 -76.83627,42.42415 42.66854,46.40282 -44.36968,14.61467 0.47302,-60.22835 -29.5687,-43.53015 21.88613,-47.06499 z"
         style="fill:none;stroke:#a60c0c;stroke-width:4.13102722000000000;stroke-linecap:round;stroke-linejoin:round;stroke-miterlimit:4;stroke-opacity:1;stroke-dasharray:none;fill-rule:evenodd" />
      <path
         transform="matrix(1.1336402,0.24859668,-0.22044182,1.0101166,63.087452,4.8683854)"
         d="m 322,82.862183 c 0,17.949257 -13.43146,32.499997 -30,32.499997 -16.56854,0 -30,-14.55074 -30,-32.499997 0,-17.949255 13.43146,-32.5 30,-32.5 16.56854,0 30,14.550745 30,32.5 z"
         sodipodi:ry="32.5"
         sodipodi:rx="30"
         sodipodi:cy="82.862183"
         sodipodi:cx="292"
         id="path2996-6-9-2-5"
         style="fill:#a60c0c;fill-opacity:1;stroke:#a60c0c;fill-rule:evenodd;stroke-opacity:1"
         sodipodi:type="arc" />
      <path
         transform="matrix(1.0076801,0.22097482,-0.22044182,1.0101166,103.64658,13.762622)"
         d="m 368,174.36218 c 0,22.64368 -19.47561,41 -43.5,41 -24.02439,0 -43.5,-18.35632 -43.5,-41 0,-22.64367 19.47561,-41 43.5,-41 24.02439,0 43.5,18.35633 43.5,41 z"
         sodipodi:ry="41"
         sodipodi:rx="43.5"
         sodipodi:cy="174.36218"
         sodipodi:cx="324.5"
         id="path2998-5-0-1-1"
         style="fill:#a60c0c;fill-opacity:1;stroke:#a60c0c;fill-rule:evenodd;stroke-opacity:1"
         sodipodi:type="arc" />
      <path
         transform="matrix(1.0706602,0.23478575,-0.22044182,1.0101166,88.594356,10.46181)"
         d="m 239,278.36218 c 0,22.64368 -17.90861,41 -40,41 -22.09139,0 -40,-18.35632 -40,-41 0,-22.64367 17.90861,-41 40,-41 22.09139,0 40,18.35633 40,41 z"
         sodipodi:ry="41"
         sodipodi:rx="40"
         sodipodi:cy="278.36218"
         sodipodi:cx="199"
         id="path3000-0-1-4-6"
         style="fill:#a60c0c;fill-opacity:1;stroke:#a60c0c;fill-rule:evenodd;stroke-opacity:1"
         sodipodi:type="arc" />
      <path
         transform="matrix(1.0076801,0.22097482,-0.22044182,1.0101166,103.64658,13.762622)"
         d="m 504,241.36218 c 0,20.98682 -17.46089,38 -39,38 -21.53911,0 -39,-17.01318 -39,-38 0,-20.98682 17.46089,-38 39,-38 21.53911,0 39,17.01318 39,38 z"
         sodipodi:ry="38"
         sodipodi:rx="39"
         sodipodi:cy="241.36218"
         sodipodi:cx="465"
         id="path3002-6-5-1-4"
         style="fill:#a60c0c;fill-opacity:1;stroke:#a60c0c;fill-rule:evenodd;stroke-opacity:1"
         sodipodi:type="arc" />
      <path
         transform="matrix(1.0076801,0.22097482,-0.22044182,1.0101166,103.64658,13.762622)"
         d="m 376,312.36218 c 0,16.01626 -13.65532,29 -30.5,29 -16.84468,0 -30.5,-12.98374 -30.5,-29 0,-16.01626 13.65532,-29 30.5,-29 16.84468,0 30.5,12.98374 30.5,29 z"
         sodipodi:ry="29"
         sodipodi:rx="30.5"
         sodipodi:cy="312.36218"
         sodipodi:cx="345.5"
         id="path3004-5-1-2-5"
         style="fill:#a60c0c;fill-opacity:1;stroke:#a60c0c;fill-rule:evenodd;stroke-opacity:1"
         sodipodi:type="arc" />
      <path
         transform="matrix(1.0076801,0.22097482,-0.22044182,1.0101166,103.64658,13.762622)"
         d="m 290,336.36218 c 0,10.49341 -8.95431,19 -20,19 -11.04569,0 -20,-8.50659 -20,-19 0,-10.49341 8.95431,-19 20,-19 11.04569,0 20,8.50659 20,19 z"
         sodipodi:ry="19"
         sodipodi:rx="20"
         sodipodi:cy="336.36218"
         sodipodi:cx="270"
         id="path3006-7-2-3-77"
         style="fill:#a60c0c;fill-opacity:1;stroke:#a60c0c;fill-rule:evenodd;stroke-opacity:1"
         sodipodi:type="arc" />
      <path
         transform="matrix(1.0076801,0.22097482,-0.22044182,1.0101166,103.64658,13.762622)"
         d="m 240,346.36218 c 0,6.07513 -5.14873,11 -11.5,11 -6.35127,0 -11.5,-4.92487 -11.5,-11 0,-6.07513 5.14873,-11 11.5,-11 6.35127,0 11.5,4.92487 11.5,11 z"
         sodipodi:ry="11"
         sodipodi:rx="11.5"
         sodipodi:cy="346.36218"
         sodipodi:cx="228.5"
         id="path3008-6-3-4-3"
         style="fill:#a60c0c;fill-opacity:1;stroke:#a60c0c;fill-rule:evenodd;stroke-opacity:1"
         sodipodi:type="arc" />
      <path
         transform="matrix(1.0076801,0.22097482,-0.22044182,1.0101166,103.64658,13.762622)"
         d="m 324,369.86218 c 0,6.35128 -5.37258,11.5 -12,11.5 -6.62742,0 -12,-5.14872 -12,-11.5 0,-6.35127 5.37258,-11.5 12,-11.5 6.62742,0 12,5.14873 12,11.5 z"
         sodipodi:ry="11.5"
         sodipodi:rx="12"
         sodipodi:cy="369.86218"
         sodipodi:cx="312"
         id="path3010-0-0-7-7"
         style="fill:#a60c0c;fill-opacity:1;stroke:#a60c0c;fill-rule:evenodd;stroke-opacity:1"
         sodipodi:type="arc" />
      <path
         transform="matrix(1.0076801,0.22097482,-0.22044182,1.0101166,103.64658,13.762622)"
         d="m 421,347.36218 c 0,10.49341 -8.73045,19 -19.5,19 -10.76955,0 -19.5,-8.50659 -19.5,-19 0,-10.49341 8.73045,-19 19.5,-19 10.76955,0 19.5,8.50659 19.5,19 z"
         sodipodi:ry="19"
         sodipodi:rx="19.5"
         sodipodi:cy="347.36218"
         sodipodi:cx="401.5"
         id="path3012-1-3-7-3"
         style="fill:#a60c0c;fill-opacity:1;stroke:#a60c0c;fill-rule:evenodd;stroke-opacity:1"
         sodipodi:type="arc" />
      <path
         transform="matrix(1.0076801,0.22097482,-0.22044182,1.0101166,103.64658,13.762622)"
         d="m 422,289.36218 c 0,7.73199 -6.26801,14 -14,14 -7.73199,0 -14,-6.26801 -14,-14 0,-7.73198 6.26801,-14 14,-14 7.73199,0 14,6.26802 14,14 z"
         sodipodi:ry="14"
         sodipodi:rx="14"
         sodipodi:cy="289.36218"
         sodipodi:cx="408"
         id="path3014-0-7-7-2"
         style="fill:#a60c0c;fill-opacity:1;stroke:#a60c0c;fill-rule:evenodd;stroke-opacity:1"
         sodipodi:type="arc" />
      <path
         transform="matrix(1.0076801,0.22097482,-0.22044182,1.0101166,103.64658,13.762622)"
         d="m 477,302.86218 c 0,9.1127 -7.61116,16.5 -17,16.5 -9.38884,0 -17,-7.3873 -17,-16.5 0,-9.1127 7.61116,-16.5 17,-16.5 9.38884,0 17,7.3873 17,16.5 z"
         sodipodi:ry="16.5"
         sodipodi:rx="17"
         sodipodi:cy="302.86218"
         sodipodi:cx="460"
         id="path3016-2-9-0-6"
         style="fill:#a60c0c;fill-opacity:1;stroke:#a60c0c;fill-rule:evenodd;stroke-opacity:1"
         sodipodi:type="arc" />
      <path
         transform="matrix(1.0076801,0.22097482,-0.22044182,1.0101166,103.64658,13.762622)"
         d="m 507,179.86218 c 0,11.32184 -9.17816,20.5 -20.5,20.5 -11.32184,0 -20.5,-9.17816 -20.5,-20.5 0,-11.32183 9.17816,-20.5 20.5,-20.5 11.32184,0 20.5,9.17817 20.5,20.5 z"
         sodipodi:ry="20.5"
         sodipodi:rx="20.5"
         sodipodi:cy="179.86218"
         sodipodi:cx="486.5"
         id="path3018-2-4-0-0"
         style="fill:#a60c0c;fill-opacity:1;stroke:#a60c0c;fill-rule:evenodd;stroke-opacity:1"
         sodipodi:type="arc" />
      <path
         transform="matrix(1.0076801,0.22097482,-0.22044182,1.0101166,103.64658,13.762622)"
         d="m 482,145.86218 c 0,5.24671 -4.25329,9.5 -9.5,9.5 -5.24671,0 -9.5,-4.25329 -9.5,-9.5 0,-5.2467 4.25329,-9.5 9.5,-9.5 5.24671,0 9.5,4.2533 9.5,9.5 z"
         sodipodi:ry="9.5"
         sodipodi:rx="9.5"
         sodipodi:cy="145.86218"
         sodipodi:cx="472.5"
         id="path3020-5-5-3-6"
         style="fill:#a60c0c;fill-opacity:1;stroke:#a60c0c;fill-rule:evenodd;stroke-opacity:1"
         sodipodi:type="arc" />
      <path
         transform="matrix(1.0076801,0.22097482,-0.22044182,1.0101166,103.64658,13.762622)"
         d="m 452,168.36218 c 0,6.07513 -5.37258,11 -12,11 -6.62742,0 -12,-4.92487 -12,-11 0,-6.07513 5.37258,-11 12,-11 6.62742,0 12,4.92487 12,11 z"
         sodipodi:ry="11"
         sodipodi:rx="12"
         sodipodi:cy="168.36218"
         sodipodi:cx="440"
         id="path3022-4-8-6-9"
         style="fill:#a60c0c;fill-opacity:1;stroke:#a60c0c;fill-rule:evenodd;stroke-opacity:1"
         sodipodi:type="arc" />
      <path
         transform="matrix(1.0076801,0.22097482,-0.22044182,1.0101166,103.64658,13.762622)"
         d="m 415,154.36218 c 0,9.66499 -8.28273,17.5 -18.5,17.5 -10.21727,0 -18.5,-7.83501 -18.5,-17.5 0,-9.66498 8.28273,-17.5 18.5,-17.5 10.21727,0 18.5,7.83502 18.5,17.5 z"
         sodipodi:ry="17.5"
         sodipodi:rx="18.5"
         sodipodi:cy="154.36218"
         sodipodi:cx="396.5"
         id="path3024-9-2-7-8"
         style="fill:#a60c0c;fill-opacity:1;stroke:#a60c0c;fill-rule:evenodd;stroke-opacity:1"
         sodipodi:type="arc" />
      <path
         transform="matrix(1.0076801,0.22097482,-0.22044182,1.0101166,103.64658,13.762622)"
         d="m 417,219.36218 c 0,11.59798 -9.62588,21 -21.5,21 -11.87412,0 -21.5,-9.40202 -21.5,-21 0,-11.59798 9.62588,-21 21.5,-21 11.87412,0 21.5,9.40202 21.5,21 z"
         sodipodi:ry="21"
         sodipodi:rx="21.5"
         sodipodi:cy="219.36218"
         sodipodi:cx="395.5"
         id="path3026-2-6-1-9"
         style="fill:#a60c0c;fill-opacity:1;stroke:#a60c0c;fill-rule:evenodd;stroke-opacity:1"
         sodipodi:type="arc" />
      <path
         transform="matrix(1.0076801,0.22097482,-0.22044182,1.0101166,103.64658,13.762622)"
         d="m 380,259.86218 c 0,7.45585 -5.8203,13.5 -13,13.5 -7.1797,0 -13,-6.04415 -13,-13.5 0,-7.45584 5.8203,-13.5 13,-13.5 7.1797,0 13,6.04416 13,13.5 z"
         sodipodi:ry="13.5"
         sodipodi:rx="13"
         sodipodi:cy="259.86218"
         sodipodi:cx="367"
         id="path3028-8-3-8-7"
         style="fill:#a60c0c;fill-opacity:1;stroke:#a60c0c;fill-rule:evenodd;stroke-opacity:1"
         sodipodi:type="arc" />
      <path
         transform="matrix(1.0076801,0.22097482,-0.22044182,1.0101166,103.64658,13.762622)"
         d="m 350,241.86218 c 0,6.90356 -5.37258,12.5 -12,12.5 -6.62742,0 -12,-5.59644 -12,-12.5 0,-6.90356 5.37258,-12.5 12,-12.5 6.62742,0 12,5.59644 12,12.5 z"
         sodipodi:ry="12.5"
         sodipodi:rx="12"
         sodipodi:cy="241.86218"
         sodipodi:cx="338"
         id="path3030-0-9-9-7"
         style="fill:#a60c0c;fill-opacity:1;stroke:#a60c0c;fill-rule:evenodd;stroke-opacity:1"
         sodipodi:type="arc" />
      <path
         transform="matrix(1.0076801,0.22097482,-0.22044182,1.0101166,103.64658,13.762622)"
         d="m 319,263.86218 c 0,9.1127 -8.05887,16.5 -18,16.5 -9.94113,0 -18,-7.3873 -18,-16.5 0,-9.1127 8.05887,-16.5 18,-16.5 9.94113,0 18,7.3873 18,16.5 z"
         sodipodi:ry="16.5"
         sodipodi:rx="18"
         sodipodi:cy="263.86218"
         sodipodi:cx="301"
         id="path3032-9-8-7-9"
         style="fill:#a60c0c;fill-opacity:1;stroke:#a60c0c;fill-rule:evenodd;stroke-opacity:1"
         sodipodi:type="arc" />
      <path
         transform="matrix(1.0076801,0.22097482,-0.22044182,1.0101166,103.64658,13.762622)"
         d="m 279,285.86218 c 0,7.45585 -6.26801,13.5 -14,13.5 -7.73199,0 -14,-6.04415 -14,-13.5 0,-7.45584 6.26801,-13.5 14,-13.5 7.73199,0 14,6.04416 14,13.5 z"
         sodipodi:ry="13.5"
         sodipodi:rx="14"
         sodipodi:cy="285.86218"
         sodipodi:cx="265"
         id="path3034-9-8-3-5"
         style="fill:#a60c0c;fill-opacity:1;stroke:#a60c0c;fill-rule:evenodd;stroke-opacity:1"
         sodipodi:type="arc" />
      <path
         transform="matrix(1.0076801,0.22097482,-0.22044182,1.0101166,103.64658,13.762622)"
         d="m 272,226.86218 c 0,8.00813 -6.71573,14.5 -15,14.5 -8.28427,0 -15,-6.49187 -15,-14.5 0,-8.00813 6.71573,-14.5 15,-14.5 8.28427,0 15,6.49187 15,14.5 z"
         sodipodi:ry="14.5"
         sodipodi:rx="15"
         sodipodi:cy="226.86218"
         sodipodi:cx="257"
         id="path3036-5-8-7-4"
         style="fill:#a60c0c;fill-opacity:1;stroke:#a60c0c;fill-rule:evenodd;stroke-opacity:1"
         sodipodi:type="arc" />
      <path
         transform="matrix(1.0076801,0.22097482,-0.22044182,1.0101166,103.64658,13.762622)"
         d="m 233,195.36218 c 0,7.1797 -6.04416,13 -13.5,13 -7.45584,0 -13.5,-5.8203 -13.5,-13 0,-7.1797 6.04416,-13 13.5,-13 7.45584,0 13.5,5.8203 13.5,13 z"
         sodipodi:ry="13"
         sodipodi:rx="13.5"
         sodipodi:cy="195.36218"
         sodipodi:cx="219.5"
         id="path3038-6-5-1-4"
         style="fill:#a60c0c;fill-opacity:1;stroke:#a60c0c;fill-rule:evenodd;stroke-opacity:1"
         sodipodi:type="arc" />
      <path
         transform="matrix(1.0076801,0.22097482,-0.22044182,1.0101166,103.64658,13.762622)"
         d="m 189,193.36218 c 0,9.38884 -7.83502,17 -17.5,17 -9.66498,0 -17.5,-7.61116 -17.5,-17 0,-9.38884 7.83502,-17 17.5,-17 9.66498,0 17.5,7.61116 17.5,17 z"
         sodipodi:ry="17"
         sodipodi:rx="17.5"
         sodipodi:cy="193.36218"
         sodipodi:cx="171.5"
         id="path3040-2-6-5-17"
         style="fill:#a60c0c;fill-opacity:1;stroke:#a60c0c;fill-rule:evenodd;stroke-opacity:1"
         sodipodi:type="arc" />
      <path
         transform="matrix(1.0076801,0.22097482,-0.22044182,1.0101166,103.64658,13.762622)"
         d="m 202,140.86218 c 0,5.24671 -4.47715,9.5 -10,9.5 -5.52285,0 -10,-4.25329 -10,-9.5 0,-5.2467 4.47715,-9.5 10,-9.5 5.52285,0 10,4.2533 10,9.5 z"
         sodipodi:ry="9.5"
         sodipodi:rx="10"
         sodipodi:cy="140.86218"
         sodipodi:cx="192"
         id="path3042-7-4-8-4"
         style="fill:#a60c0c;fill-opacity:1;stroke:#a60c0c;fill-rule:evenodd;stroke-opacity:1"
         sodipodi:type="arc" />
      <path
         transform="matrix(1.0076801,0.22097482,-0.22044182,1.0101166,103.64658,13.762622)"
         d="m 255,147.86218 c 0,11.87412 -10.07359,21.5 -22.5,21.5 -12.42641,0 -22.5,-9.62588 -22.5,-21.5 0,-11.87412 10.07359,-21.5 22.5,-21.5 12.42641,0 22.5,9.62588 22.5,21.5 z"
         sodipodi:ry="21.5"
         sodipodi:rx="22.5"
         sodipodi:cy="147.86218"
         sodipodi:cx="232.5"
         id="path3044-9-8-5-0"
         style="fill:#a60c0c;fill-opacity:1;stroke:#a60c0c;fill-rule:evenodd;stroke-opacity:1"
         sodipodi:type="arc" />
      <path
         transform="matrix(0.97619014,0.21406936,-0.22044182,1.0101166,111.07822,15.392311)"
         d="m 236,95.862183 c 0,8.560417 -7.16344,15.499997 -16,15.499997 -8.83656,0 -16,-6.93958 -16,-15.499997 0,-8.560414 7.16344,-15.5 16,-15.5 8.83656,0 16,6.939586 16,15.5 z"
         sodipodi:ry="15.5"
         sodipodi:rx="16"
         sodipodi:cy="95.862183"
         sodipodi:cx="220"
         id="path3046-5-7-5-0"
         style="fill:#a60c0c;fill-opacity:1;stroke:#a60c0c;fill-rule:evenodd;stroke-opacity:1"
         sodipodi:type="arc" />
      <path
         transform="matrix(1.0076801,0.22097482,-0.22044182,1.0101166,103.64658,13.762622)"
         d="m 376,60.862183 c 0,8.560413 -7.16344,15.5 -16,15.5 -8.83656,0 -16,-6.939587 -16,-15.5 0,-8.560414 7.16344,-15.5 16,-15.5 8.83656,0 16,6.939586 16,15.5 z"
         sodipodi:ry="15.5"
         sodipodi:rx="16"
         sodipodi:cy="60.862183"
         sodipodi:cx="360"
         id="path3048-6-5-1-2"
         style="fill:#a60c0c;fill-opacity:1;stroke:#a60c0c;fill-rule:evenodd;stroke-opacity:1"
         sodipodi:type="arc" />
      <path
         transform="matrix(1.0076801,0.22097482,-0.22044182,1.0101166,103.64658,13.762622)"
         d="m 373,104.36218 c 0,8.83656 -7.61116,16 -17,16 -9.38884,0 -17,-7.16344 -17,-16 0,-8.836553 7.61116,-15.999997 17,-15.999997 9.38884,0 17,7.163444 17,15.999997 z"
         sodipodi:ry="16"
         sodipodi:rx="17"
         sodipodi:cy="104.36218"
         sodipodi:cx="356"
         id="path3050-5-8-1-0"
         style="fill:#a60c0c;fill-opacity:1;stroke:#a60c0c;fill-rule:evenodd;stroke-opacity:1"
         sodipodi:type="arc" />
      <path
         transform="matrix(1.0076801,0.22097482,-0.22044182,1.0101166,103.64658,13.762622)"
         d="m 407,86.862183 c 0,6.903559 -5.59644,12.5 -12.5,12.5 -6.90356,0 -12.5,-5.596441 -12.5,-12.5 0,-6.90356 5.59644,-12.5 12.5,-12.5 6.90356,0 12.5,5.59644 12.5,12.5 z"
         sodipodi:ry="12.5"
         sodipodi:rx="12.5"
         sodipodi:cy="86.862183"
         sodipodi:cx="394.5"
         id="path3052-1-4-2-0"
         style="fill:#a60c0c;fill-opacity:1;stroke:#a60c0c;fill-rule:evenodd;stroke-opacity:1"
         sodipodi:type="arc" />
      <path
         transform="matrix(1.0076801,0.22097482,-0.22044182,1.0101166,103.64658,13.762622)"
         d="m 398,117.36218 c 0,4.97057 -4.02944,9 -9,9 -4.97056,0 -9,-4.02943 -9,-9 0,-4.97056 4.02944,-9 9,-9 4.97056,0 9,4.02944 9,9 z"
         sodipodi:ry="9"
         sodipodi:rx="9"
         sodipodi:cy="117.36218"
         sodipodi:cx="389"
         id="path3054-9-8-8-6"
         style="fill:#a60c0c;fill-opacity:1;stroke:#a60c0c;fill-rule:evenodd;stroke-opacity:1"
         sodipodi:type="arc" />
      <path
         transform="matrix(1.0076801,0.22097482,-0.22044182,1.0101166,103.64658,13.762622)"
         d="m 473,111.36218 c 0,16.56855 -13.2076,30 -29.5,30 -16.2924,0 -29.5,-13.43145 -29.5,-30 0,-16.56854 13.2076,-29.999997 29.5,-29.999997 16.2924,0 29.5,13.431457 29.5,29.999997 z"
         sodipodi:ry="30"
         sodipodi:rx="29.5"
         sodipodi:cy="111.36218"
         sodipodi:cx="443.5"
         id="path3056-4-3-6-1"
         style="fill:#a60c0c;fill-opacity:1;stroke:#a60c0c;fill-rule:evenodd;stroke-opacity:1"
         sodipodi:type="arc" />
      <path
         inkscape:connector-curvature="0"
         id="path3828-9-8-7-0"
         d="m 304.72315,214.89189 -38.54368,-16.91993 -33.63194,47.66461 10.04429,94.28842"
         style="fill:none;stroke:#a60c0c;stroke-width:4.13102722000000000;stroke-linecap:round;stroke-linejoin:round;stroke-miterlimit:4;stroke-opacity:1;stroke-dasharray:none;fill-rule:evenodd" />
      <path
         inkscape:connector-curvature="0"
         id="path3830-4-7-5-8"
         d="m 392.83107,333.70813 -42.70068,11.80529"
         style="fill:none;stroke:#a60c0c;stroke-width:4.13102722000000000;stroke-linecap:round;stroke-linejoin:round;stroke-miterlimit:4;stroke-opacity:1;stroke-dasharray:none;fill-rule:evenodd" />
      <path
         inkscape:connector-curvature="0"
         id="path3832-7-8-2-8"
         d="m 417.2986,357.06741 33.22244,-36.11139"
         style="fill:none;stroke:#a60c0c;stroke-width:4.13102722000000000;stroke-linecap:round;stroke-linejoin:round;stroke-miterlimit:4;stroke-opacity:1;stroke-dasharray:none;fill-rule:evenodd" />
      <path
         inkscape:connector-curvature="0"
         id="path3834-6-2-0-00"
         d="M 387.5416,256.33926 308.09254,218.80613"
         style="fill:none;stroke:#a60c0c;stroke-width:4.13102722000000000;stroke-linecap:round;stroke-linejoin:round;stroke-miterlimit:4;stroke-opacity:1;stroke-dasharray:none;fill-rule:evenodd" />
      <path
         inkscape:connector-curvature="0"
         id="path3836-6-3-4-9"
         d="m 441.39028,198.28958 42.2598,-9.78505"
         style="fill:#a60c0c;stroke:#a60c0c;stroke-width:4.13102722000000000;stroke-linecap:round;stroke-linejoin:round;stroke-miterlimit:4;stroke-opacity:1;stroke-dasharray:none;fill-rule:evenodd;fill-opacity:1" />
      <path
         inkscape:connector-curvature="0"
         id="path3840-2-3-3-0"
         d="m 469.76263,218.27132 51.26577,7.00827"
         style="fill:none;stroke:#a60c0c;stroke-width:4.13102722000000000;stroke-linecap:round;stroke-linejoin:round;stroke-miterlimit:4;stroke-opacity:1;stroke-dasharray:none;fill-rule:evenodd" />
      <path
         inkscape:connector-curvature="0"
         id="path3842-7-2-7-5"
         d="m 469.66771,257.41343 30.26104,83.90335"
         style="fill:#a60c0c;stroke:#a60c0c;stroke-width:4.13102722000000000;stroke-linecap:round;stroke-linejoin:round;stroke-miterlimit:4;stroke-opacity:1;stroke-dasharray:none;fill-rule:evenodd;fill-opacity:1" />
      <path
         inkscape:connector-curvature="0"
         id="path3844-7-7-1-2"
         d="m 528.58468,345.48385 27.05044,-41.69868"
         style="fill:none;stroke:#a60c0c;stroke-width:4.13102722000000000;stroke-linecap:round;stroke-linejoin:round;stroke-miterlimit:4;stroke-opacity:1;stroke-dasharray:none;fill-rule:evenodd" />
      <path
         inkscape:connector-curvature="0"
         id="path3846-2-6-8-9"
         d="m 447.08775,399.58744 -13.57287,57.35567"
         style="fill:none;stroke:#a60c0c;stroke-width:4.13102722000000000;stroke-linecap:round;stroke-linejoin:round;stroke-miterlimit:4;stroke-opacity:1;stroke-dasharray:none;fill-rule:evenodd" />
      <path
         inkscape:connector-curvature="0"
         id="path3848-0-6-5-53"
         d="m 373.84169,411.04516 -35.99366,43.97135 -38.29146,-42.26761 -40.71671,2.71424"
         style="fill:none;stroke:#a60c0c;stroke-width:4.13102722000000000;stroke-linecap:round;stroke-linejoin:round;stroke-miterlimit:4;stroke-opacity:1;stroke-dasharray:none;fill-rule:evenodd" />
      <path
         inkscape:connector-curvature="0"
         id="path3850-8-2-3-5"
         d="m 308.78374,360.79101 -9.00673,50.94778"
         style="fill:#a60c0c;stroke:#a60c0c;stroke-width:4.13102722000000000;stroke-linecap:round;stroke-linejoin:round;stroke-miterlimit:4;stroke-opacity:1;stroke-dasharray:none;fill-rule:evenodd;fill-opacity:1" />
      <path
         inkscape:connector-curvature="0"
         id="path3940-1-3-2-7"
         d="M 548.01494,266.12659 524.88595,224.53783"
         style="fill:none;stroke:#a60c0c;stroke-width:4.13102722000000000;stroke-linecap:butt;stroke-linejoin:miter;stroke-miterlimit:4;stroke-opacity:1;stroke-dasharray:none;fill-rule:evenodd" />
    </g>
    <path
       style="fill:#656d6a;fill-opacity:1;stroke:#ffffff;stroke-width:2.20000005;stroke-linecap:round;stroke-linejoin:round;stroke-miterlimit:4;stroke-opacity:1;stroke-dasharray:none"
       d="m 329.23427,689.40634 -26.9687,2.75 -15.9375,25.84375 -6.0625,18.15625 c 0,0 -6.0711,19.40346 14.8125,46.125 20.8836,26.72154 85.9062,21.96875 85.9062,21.96875 3.1028,-8.95092 9.0642,-17.89229 10.8126,-23 -3.6759,4.00978 -16.3849,33.32949 -13.5626,31.6875 -5.2407,37.05766 -5.5826,56.02742 3.5313,90.59375 -5.0335,7.2565 -9.9503,10.7648 -6.9063,23.625 11.4448,21.07698 28.3833,4.4493 53.0938,16.40625 l 22.4062,10.78125 c 22.8897,9.14994 37.7875,-8.88395 31.3438,-14.46875 -3.2696,-0.53781 -12.8704,-0.14389 -17.9375,-2.5625 0,0 10.2632,3.08736 17.9063,1.78125 1.6912,-1.73723 0.5264,-4.11139 1.0624,-6 -9.3253,-2.90343 -9.8177,-2.31634 -17.9687,-3.15625 0,0 10.2948,-0.11358 18.2187,2.03125 0.5772,-3.47024 -0.7212,-2.86977 -3.7187,-5.34375 -3.7517,-0.11321 -8.6796,-1.9798 -14.5625,-1.46875 0,0 7.5172,-0.28929 13.4375,0.96875 -1.4152,-0.89419 -3.6042,-4.10735 -5.5625,-4.59375 -20.743,-5.1169 -30.6931,-9.37035 -45.7188,-29.53125 l 31.8126,-100.15625 c 0,0 8.2653,-16.27359 6.0624,-23.09375 -2.2026,-6.82017 0.6402,-11.72404 -11.5624,-22 0,0 -13.367,-16.04247 -29.9376,-19.75 -42.1067,-9.42121 -32.3507,-24.74773 -56.9687,-27.65625 -24.1927,-2.85827 -37.0313,-9.9375 -37.0313,-9.9375 z m 104.5,64.84375 c -0.9011,12.30849 -2.3623,16.0088 0.625,21.78125 3.6717,8.32686 13.7188,14.5 13.7188,14.5 0,0 -10.0747,-3.06132 -14.7812,-13.46875 -3.121,-9.54732 -1.6614,-15.59369 0.4374,-22.8125 z"
       id="path3988-98-6"
       sodipodi:nodetypes="ccccscccccccccccccccccccscsscccccc"
       inkscape:export-filename="E:\TitanLogo-v4.png"
       inkscape:export-xdpi="299.90149"
       inkscape:export-ydpi="299.90149" />
    <path
       style="fill:#656d6a;fill-opacity:1;stroke:#ffffff;stroke-width:2.12157154;stroke-linecap:round;stroke-linejoin:round;stroke-miterlimit:4;stroke-opacity:1;stroke-dasharray:none"
       d="m 282.85927,696.00009 -28.875,5.40625 -16.9062,7.46875 c 0,0 -28.3528,28.50875 -33.8438,60.65625 -11.1304,18.29287 -7.7222,78.36562 -2.125,92.125 -12.4139,-27.41171 -4.071,-57.29863 -8.0937,-66.71875 -5.026,-0.13229 -10.9636,9.37836 -25.5313,9.75 -24.1467,-1.19351 -18.9021,5.42532 -45.5312,-1.59375 -13.8211,-4.25021 -22.780004,0.87075 -29.281204,12.78125 -4.4279,14.48729 9.288404,28.89658 11.681004,39.95863 3.8988,17.20675 -4.2725,19.60198 2.8064,36.30301 3.0443,6.11399 10.968,13.8652 10.968,13.8652 -0.235,-0.0783 4.9742,3.90964 7.4233,-3.10615 -3.1019,-2.76404 -4.0536,-4.11004 -5.8592,-6.92694 0,0 1.5953,3.82858 7.8315,8.67325 3.8058,2.24675 6.9108,-0.97668 7.1562,-3.29013 -3.69,-3.61695 -4.8023,-5.16678 -7.4564,-8.94746 0,0 3.5295,6.51584 9.0179,9.65901 3.5298,1.52605 5.1304,0.39371 6.275,-3.15717 0.01,0.002 -0.5977,-0.53233 -0.5877,-0.53033 -1.952,-3.16297 -4.6049,-3.80032 -6.7734,-10.11704 0,0 4.0958,5.81043 8.8608,10.99112 3.3737,0.71656 6.0157,0.88233 6.6875,-3.125 0.053,0.012 0.1037,0.02 0.1562,0.0312 -1.7211,-3.02955 -6.0895,-6.58816 -6.9374,-10.78125 0,0 2.1012,5.09483 8.2187,10.96875 9.1728,0.92056 13.058,-8.59546 7.1875,-11.5625 -5.6205,-2.84069 -7.0435,-6.205 -9.6259,-10.5775 -2.8072,-8.53689 -2.764,-13.40248 -2.6553,-14.26625 -3.3448,0.0863 -12.0201,-0.14475 -18.875,-4.28125 -5.4542,-7.91601 -6.7623,-7.29351 -8.2813,-14.65625 4.9571,11.30216 9.2273,11.12133 12.3437,15.4375 6.074,3.09681 16.2813,3.4375 16.2813,3.4375 0,0 -0.399,0.009 -0.9687,0.0312 2.3782,1.58566 52.9809,49.8132 75.1874,49.5625 22.7627,-0.2571 38.6857,1.51545 42.125,-4.46875 3.4399,-5.9842 13.2326,-4.80002 12.625,-20.125 0,0 1.7648,-55.45901 8.1563,-70.5 6.3916,-15.041 21.377,-32.06135 22.9375,-55.84375 1.5606,-23.78239 -6.1875,-45.1875 -6.1875,-45.1875 l -19.5313,-17.34375 3e-4,10e-5 z"
       id="path3988-9-0-43"
       sodipodi:nodetypes="ccccccccccccccccccccccccccscccccccsscssccc"
       inkscape:export-filename="E:\TitanLogo-v4.png"
       inkscape:export-xdpi="299.90149"
       inkscape:export-ydpi="299.90149" />
    <path
       style="fill:#656d6a;fill-opacity:1;stroke:#ffffff;stroke-width:3;stroke-linecap:round;stroke-linejoin:miter;stroke-miterlimit:4;stroke-opacity:1;stroke-dasharray:none"
       d="m 159.56167,235.95669 c -0.6554,0.0559 -1.3984,0.25981 -2.25,0.625 -3.9702,3.7798 -8.164,6.41899 -12.1563,12.375 -3.8913,3.09106 -8.3227,15.05382 -9.5937,19.25 -1.2711,4.19619 -0.5938,17.03125 -0.5938,17.03125 0,0 -1.5995,-13.77529 -1.0937,-17.21875 0.5058,-3.44344 1.9295,-8.28668 7.8125,-17.375 1.718,-2.65415 3.902,-4.71972 6,-6.3125 l -1.0938,-0.0312 c 0,0 -9.5042,-8.91865 -20.25,25.1875 -3.8951,10.05376 -2.7228,22.46621 -2,32.31251 0.6937,9.45034 5.2653,27.07961 5.625,28.3125 7.2613,5.38229 16.8483,10.71765 23.0313,12.75 -6.8631,-0.79608 -14.306,-6.36377 -23.8438,-12.84375 -3.5227,8.99844 -15.1812,53.43558 -17.2812,76.1875 -2.3485,25.44371 -8.5612,45.6306 -3.7813,58.46875 4.78,12.83816 15.0625,14 15.0625,14 0,0 26.8837,34.64335 64.9688,53.40625 18.108,6.36002 15.4386,10.99168 33.9687,17.1875 -12.6598,-1.2329 -7.6845,-5.5168 -27.3437,-11.28125 6.5505,24.38064 16.3215,48.63188 28.7812,69.09375 9.6638,21.85661 3.2895,47.42649 0.625,54.53125 -2.6645,7.10474 -5.9375,-1.96083 -4.8125,10.5625 7.9507,7.28787 34.4469,25.33795 63.0938,29.71875 28.6469,4.38082 57.6725,4.00676 63.4375,-5.75 5.765,-9.75676 8.4302,-29.77231 5.2187,-42.59375 6.061,-8.94574 8.1346,-27.24207 10.8125,-28.8125 2.5266,-1.48169 11.3836,-11.69923 15.7813,-16.9375 0.6313,-0.15901 1.256,-0.29621 1.7812,-0.40625 11.2711,-14.24219 15.2661,-29.43347 19.8438,-41.8125 0.8491,-21.9241 -8.8106,-38.2171 -15.9375,-48.78125 -1.5332,-2.27253 -3.1097,-4.04821 -4.625,-5.46875 -2.4406,0.52643 -4.7566,1.04774 -7.0313,1.5625 0.1197,0.56714 -6.0223,2.82624 -13.375,3.25 -0.3562,0.0998 -0.7824,0.18927 -1.0937,0.28125 0.3066,-0.0996 0.6107,-0.18642 0.9062,-0.28125 -0.8444,0.0454 -1.6957,0.10285 -2.5625,0.0937 7.0846,-2.48431 13.84,-4.84102 21,-6.75 -4.5724,-3.41425 -8.2187,-3.53125 -8.2187,-3.53125 -3.6782,-1.54771 -11.5129,-3.85358 -14.9063,-5.3125 -3.8296,-5.76934 -7.6084,-21.6612 2.2813,-49.25 -12.2951,-13.59557 -37.7614,-17.29119 -54.6563,-9.375 -3.8674,27.98703 -13.3695,36.56945 -19.3437,41.90625 -10.8834,-3.30333 -16.0654,-2.97908 -28.7813,-3.21875 -6.1523,-6.04556 -8.2442,-7.23199 -25.75,-14.1875 -15.7828,-28.99494 -42.8583,-32.58788 -47.5,-33 -11.6261,6.80737 -21.375,9.40625 -21.375,9.40625 0,0 12.6049,-4.00435 23.9375,-12.4375 1.9893,-4.59891 -0.4761,-15.13213 0.062,-24.5 1.2923,-22.4746 -8.1562,-65.4375 -8.1562,-65.4375 0,0 5.8775,-8.46544 5.4375,-16.125 -0.4401,-7.65958 -12.375,-26.25 -12.375,-26.25 l -0.5313,-15.31251 c 0,0 13.2423,-10.83676 12.875,-16.46875 -0.2538,-3.891 -3.6772,-7.9392 -5.7812,-10.09375 -5.7346,6.10024 -12.6495,13.34662 -17.4063,22.6875 -2.1213,4.24264 -2.8437,12.6875 -2.8437,12.6875 0,0 -0.3419,-9.49571 0.7187,-13.03125 1.0607,-3.53553 5.6361,-9.53433 12,-17.3125 2.9357,-4.12402 8.9665,-9.46212 8.0625,-13.78125 -0.5583,-2.20593 -3.037,-4.55115 -5.5,-6.375 -2.2131,1.48948 -8.3844,5.46048 -11.6562,8.4375 -4.5925,4.17868 -10.4904,12.75956 -12.4688,16.90625 -0.6305,1.32149 -1.2219,18.57484 -1.75,21 0.441,-2.36263 0.8729,-19.52592 1.1875,-20.625 0.9892,-3.45558 4.9058,-11.09764 12.2813,-17.3125 6.2002,-5.22461 7.9488,-7.9785 11.5625,-9 -0.7369,-0.51246 -1.4558,-0.99475 -2.0938,-1.375 -2.0734,-1.09571 -3.311,-3.12802 -5.7187,-3.25 -0.2007,-0.0102 -0.4066,-0.0187 -0.625,0 z m 0,218.96876 c 0,0 8.4713,18.30317 18.8125,24.1875 17.4949,9.95494 26.9067,9.28667 35.4687,6.875 -4.217,2.20844 -21.1791,1.69336 -35.7187,-6.0625 -14.5396,-7.75585 -18.5625,-25 -18.5625,-25 z m 110.1875,45.78125 c 1.4179,-0.0418 2.8755,-1.2e-4 4.3437,0.15625 22.0132,2.34454 36.3982,7.80319 52.5313,14.34375 -0.8702,-0.0328 -1.7176,-0.13239 -2.5625,-0.21875 0.4017,0.15042 0.8217,0.32042 1.2187,0.46875 -0.4281,-0.14881 -0.8725,-0.30174 -1.375,-0.46875 -7.4271,-0.78624 -13.5456,-3.39531 -13.2187,-3.90625 -14.2945,-3.96212 -33.2305,-8.66239 -38.9688,-9.40625 -3.2944,-0.42705 -6.2148,-0.40634 -8.7187,-0.125 2.0948,-0.43588 4.3698,-0.77362 6.75,-0.84375 z m -6.9063,0.875 c -6.5583,1.38996 -11.25,3.9375 -11.25,3.9375 0,0 3.8463,-3.06656 11.25,-3.9375 z m 78.7813,18.0625 c 0,0 1.4409,2.93003 1.5,9.40625 0.1843,2.68545 0.2092,5.74028 -0.1563,9.0625 -2.1129,19.20314 -5.4301,32.38864 -9.375,47.25 0.5273,-7.35093 2.4314,-14.4092 2.7188,-14.28125 2.5851,-12.87059 5.7579,-29.84494 6.375,-34.875 0.3387,-2.76144 0.456,-5.12024 0.4375,-7.15625 -0.3843,-5.59674 -1.5,-9.40625 -1.5,-9.40625 z m -101.75,27.40625 c 4.2853,14.03819 13.8711,42.64179 23.75,51.3125 10.5515,4.37267 19.1673,8.00285 33.4062,8.625 8.8357,-1.21439 29.1856,-4.96307 36.0313,-11.34375 2.7122,1.32006 13.4633,16.5462 23.8125,16.40625 5.0936,-0.0689 16.3538,-6.19546 27.9375,-13.34375 -6.1259,4.1042 -19.4865,14.20041 -23.6563,14.125 -10.3031,-0.23881 -15.8055,-1.0002 -28.9687,-10.53125 -8.4842,2.25275 -28.1773,4.04122 -35.1563,4.6875 0.1589,0.007 0.3085,0.0251 0.4688,0.0312 -17.7402,-0.0987 -23.6279,-3.35926 -30.7813,-5 -10.0197,-2.79262 -21.9814,-32.94942 -26.8437,-54.96875 z m 40.3125,65.09375 c 0,0 -4.2736,9.29584 -5.625,15.875 -0.5292,2.57645 -0.8553,6.42649 -1.0625,10.1875 0.7875,4.44033 1.9771,8.915 2.1875,11.21875 -0.3667,1.13422 -3.5956,6.13328 -5.75,11.09375 0.9312,-5.19487 2.5741,-11.54794 2.9687,-13.03125 0.1226,1.3333 0.25,2.125 0.25,2.125 0,0 0.022,-5.56317 0.3438,-11.40625 -0.591,-3.33185 -0.9473,-6.66041 -0.5,-9.03125 1.3995,-7.41941 7.1875,-17.03125 7.1875,-17.03125 z m 12.5312,16.90625 c 0,0 6.4127,5.91787 11.5625,7.34375 1.9991,0.55345 5.1583,0.6061 8.2813,0.5 4.1199,-1.8232 8.4338,-4.31354 10.5,-4.9375 0.8446,0.46771 3.9719,5.22649 7.4687,8.15625 1.0093,0.21978 1.9911,0.38433 2.8438,0.4375 4.8032,0.29947 13.3125,-3.1875 13.3125,-3.1875 0,0 -6.1215,5.19709 -11.4375,5.03125 -1.5259,-0.0476 -3.1622,-0.97709 -4.7188,-2.28125 -4.1262,-0.89852 -8.9921,-2.87324 -10.125,-3.34375 1.1879,-0.36 1.9063,-0.65625 1.9063,-0.65625 0,0 -4.8281,0.61403 -9.75,0.78125 -3.0419,1.34613 -5.9908,2.35084 -7.8438,1.90625 -5.8528,-1.40421 -12,-9.75 -12,-9.75 z m -22.7812,31.5 c -0.2299,1.2852 -0.4532,2.51342 -0.5625,3.5625 -0.6109,5.86071 0.8437,15.1875 0.8437,15.1875 0,0 -2.7592,-5.96409 -2.1875,-12.40625 0.1658,-1.86855 0.9326,-4.09797 1.9063,-6.34375 z m 17.6875,-0.40625 c 0,0 6.7627,4.81867 11.9687,5.78125 2.0078,0.37119 5.1159,0.26341 8.1875,0 3.9783,-1.83048 8.1095,-4.27256 10.125,-4.9375 0.8717,0.36369 4.3224,4.37884 8,6.75 0.9988,0.13257 1.9762,0.21971 2.8125,0.21875 4.7856,-0.006 13,-3.53125 13,-3.53125 0,0 -5.7147,4.88 -11,5.03125 -1.5093,0.0432 -3.1875,-0.67102 -4.8125,-1.71875 -4.1641,-0.55273 -9.152,-2.02501 -10.3125,-2.375 1.1541,-0.38188 1.8438,-0.6875 1.8438,-0.6875 0,0 -4.7635,0.83041 -9.6563,1.25 -2.9094,1.33867 -5.7354,2.37852 -7.5937,2.09375 -5.902,-0.90435 -12.5625,-7.875 -12.5625,-7.875 z"
       id="path4010-1-15"
       inkscape:connector-curvature="0"
       sodipodi:nodetypes="cccscsscccscccsscccccscsscscccscccccccccccccccccscsccscccscccsscsscccccscscsscccccscscccccsccsccccccscccccccccccccccsccccccscccccccccccscccccccccccccccc"
       inkscape:export-filename="E:\TitanLogo-v4.png"
       inkscape:export-xdpi="299.90149"
       inkscape:export-ydpi="299.90149" />
    <path
       style="fill:#49504d;fill-opacity:1;stroke:#ffffff;stroke-width:4;stroke-linecap:round;stroke-linejoin:round;stroke-miterlimit:4;stroke-opacity:1;stroke-dasharray:none"
       d="m 218.84287,662.92545 c -1.3886,0.007 -3.4309,0.95613 -6.25,4.34375 -3.6981,4.44398 -4.9889,9.23528 -5.4375,12.5 0.4625,0.38209 2.0774,1.63973 5.0938,3.75 19.424,11.58798 49.768,27.74364 84.4375,15.875 -35.6172,14.24685 -71.1331,-6.56713 -84.4375,-15.875 -1.6989,-0.22624 -2.9796,-0.0288 -3.8125,0.75 l 1.75,4.8125 c 15.1522,23.10448 22.5,48.8125 22.5,48.8125 l -22.5,-48.8125 c 55.7091,40.29412 -1.6149,-2.43389 -2.5,-3.6875 0.1825,-0.45102 0.4433,-0.8382 0.75,-1.125 l -1.3438,-3.78125 c -0.2176,2.01734 -0.125,3.28125 -0.125,3.28125 0,0 -6.02,2.93905 -6.0625,8.96875 1.3618,5.41863 2.2213,7.06924 2.6875,7.375 -0.3627,1.39386 -0.9224,4.83773 -1.5,12.8125 -2.0164,27.83872 -10.2062,72.61915 -19.5312,71.15625 -8.425,5.73709 -4.6563,13.78125 -4.6563,13.78125 0,0 43.6374,22.82229 78.6563,25.625 35.0188,2.80271 59.4062,-10.46875 59.4062,-10.46875 0,0 62.0387,-95.44545 83.5938,-92.4375 10.2673,1.44937 9.0976,1.30902 24.6562,4.25 -0.6517,-17.15476 -0.7205,-14.12553 -9.75,-25.46875 -7.8849,-4.28919 -19.6879,1.26161 -35.0625,-9.25 -15.3746,-10.51161 -15.3437,-6.625 -15.3437,-6.625 0,0 0.4648,-5.40496 -0.8438,-9.21875 -1.3085,-3.81379 -9.7187,-5.6875 -9.7187,-5.6875 0,0 -15.6351,17.54627 -53.2813,19.65625 -37.6462,2.10997 -62.009,-8.70214 -79.75,-17.21875 0.409,-3.56661 0.875,-6.53125 0.875,-6.53125 0,0 -0.7146,-1.57208 -2.5,-1.5625 z"
       id="path4008-3-9"
       inkscape:connector-curvature="0"
       sodipodi:nodetypes="ssccccccccccccccsccsccccscscsccs"
       inkscape:export-filename="E:\TitanLogo-v4.png"
       inkscape:export-xdpi="299.90149"
       inkscape:export-ydpi="299.90149" />
    <path
       style="fill:#656d6a;fill-opacity:1;stroke:#ffffff;stroke-width:3.11018538;stroke-linecap:round;stroke-linejoin:round;stroke-miterlimit:4;stroke-opacity:1;stroke-dasharray:none"
       d="m 299.55067,466.7831 c 0,0 -0.088,1.267 1.701,8.58019 10.0431,7.47204 25.0345,20.86557 33.0916,26.44755 17.0169,3.14691 28.8273,-4.13204 32.1837,-5.76129 0.9965,-5.06852 0.4704,-12.57979 -1.0727,-17.38621 3.2486,-4.73167 2.1718,-8.17575 6.1534,-15.50813 3.9816,-7.3324 -0.9958,-15.85431 -0.9958,-15.85431 5.501,-5.38658 9.8661,-12.14801 4.9045,-17.30239 0,0 1.248,-14.58678 -7.9446,-22.63525 -9.1927,-8.04845 -20.3185,-15.65248 -49.8373,-10.9844 -29.5187,4.66808 -27.6264,26.34566 -25.352,40.96143"
       id="path3831-0-7"
       inkscape:connector-curvature="0"
       sodipodi:nodetypes="ccccczcczzc"
       inkscape:export-filename="E:\TitanLogo-v4.png"
       inkscape:export-xdpi="299.90149"
       inkscape:export-ydpi="299.90149" />
    <path
       style="fill:#656d6a;fill-opacity:1;stroke:#ffffff;stroke-width:3;stroke-linecap:round;stroke-linejoin:miter;stroke-miterlimit:4;stroke-opacity:1;stroke-dasharray:none"
       d="m 298.77837,464.30109 c 0,0 2.3979,7.53852 0.358,10.82445 -2.0399,3.28593 -6.248,8.06149 -9.217,5.53397 -0.01,-1.35126 1.0108,-5.81258 -0.1763,-9.17316 -1.1871,-3.3606 -4.8227,2.8123 -4.8259,0.0333 0,-2.77904 -0.6898,-8.47851 0.594,-12.76845 1.2837,-4.28993 -5.3986,-12.47062 -5.1786,-18.31308 0.22,-5.84246 3.6564,-6.64572 6.0417,-13.2049 -5.6213,-6.67492 -6.0082,-17.59806 7.2573,-26.37652 3.2121,-9.33598 5.3785,-15.82775 21.2128,-11.54297 5.7914,-11.31653 17.6177,-14.16765 30.529,-2.54678 12.9988,-8.7799 25.0012,-1.45604 26.8646,9.55905 10.497,3.20579 9.6603,6.5029 10.9232,11.49241 2.6166,3.66956 -0.1742,7.1449 0.028,12.36528 1.5557,3.90044 5.514,9.25035 5.514,9.25035 -10.6186,-0.68993 -12.4662,-3.24192 -16.5194,-7.86385 0.1072,5.94837 -1.3958,5.89307 -3.2637,12.83757 -2.6422,-3.3334 -7.2578,-13.8118 -9.1616,-19.81791 -1.5844,7.49683 -0.7924,19.21368 -7.489,24.2494 -1.611,-6.77007 -8.368,-20.20782 -10.4994,-22.7578 -3.1602,4.75103 -4.4605,17.25351 -10.5626,19.56538 -2.1843,-5.9778 -1.8519,-13.6021 -5.5604,-19.28329 -0.4612,8.78573 -7.7068,13.3653 -12.5931,10.77831 l 0.036,12.84254 c 0,0 -0.1919,12.46746 -3.6313,16.94921 -3.0324,-2.41609 -7.8249,-8.56526 -5.3271,-15.12097 0.2307,-5.97023 -3.3184,-12.00069 -3.3184,-12.00069"
       id="path3837-2-8"
       inkscape:connector-curvature="0"
       sodipodi:nodetypes="ccccccccccccccccccccccccccc"
       inkscape:export-filename="E:\TitanLogo-v4.png"
       inkscape:export-xdpi="299.90149"
       inkscape:export-ydpi="299.90149" />
    <path
       style="fill:#656d6a;fill-opacity:1;stroke:#ffffff;stroke-width:2.09760833;stroke-linecap:round;stroke-linejoin:round;stroke-miterlimit:4;stroke-opacity:1;stroke-dasharray:none"
       d="m 300.03647,439.9572 c 0,0 -5.0692,-10.26935 -11.0505,-4.18095 -5.9814,6.08839 -1.5143,14.94208 1.7171,18.26864 1.7654,6.30559 -1.6529,14.39062 5.2576,15.57668 6.9105,1.18603 7.2611,-9.43718 7.2611,-9.43718"
       id="path3831-4-2-5"
       inkscape:connector-curvature="0"
       sodipodi:nodetypes="czczc"
       inkscape:export-filename="E:\TitanLogo-v4.png"
       inkscape:export-xdpi="299.90149"
       inkscape:export-ydpi="299.90149" />
    <path
       style="fill:#ffffff;fill-opacity:1;stroke:#ffffff;stroke-width:1.55336463;stroke-miterlimit:4;stroke-opacity:1;stroke-dasharray:none"
       d="m 336.92837,485.30269 c 0,0 8.2336,-2.55134 14.8426,-2.83557 6.6089,-0.28424 9.8985,1.38397 9.8985,1.38397 0,0 -4.8461,-2.26207 -10.0418,-2.3963 -9.8707,0.98164 -13.3223,3.32098 -14.6993,3.8479 z"
       id="path3857-3-6"
       inkscape:connector-curvature="0"
       sodipodi:nodetypes="czccc"
       inkscape:export-filename="E:\TitanLogo-v4.png"
       inkscape:export-xdpi="299.90149"
       inkscape:export-ydpi="299.90149" />
    <path
       style="fill:#747474;fill-opacity:1;stroke:#ffffff;stroke-width:1.52848673;stroke-miterlimit:4;stroke-opacity:1;stroke-dasharray:none"
       d="m 343.64007,490.98234 c 0,0 3.124,-0.87457 5.9351,-0.82927 2.811,0.0453 4.6224,0.82214 4.6224,0.82214 0,0 -0.8902,-1.48311 -4.3267,-1.79765 -1.5893,0.1835 -1.898,0.12431 -6.2308,1.80478 z"
       id="path3857-8-8-3"
       inkscape:connector-curvature="0"
       sodipodi:nodetypes="czccc"
       inkscape:export-filename="E:\TitanLogo-v4.png"
       inkscape:export-xdpi="299.90149"
       inkscape:export-ydpi="299.90149" />
    <path
       style="fill:#ffffff;fill-opacity:1;stroke:#ffffff;stroke-width:1;stroke-linecap:butt;stroke-linejoin:miter;stroke-miterlimit:4;stroke-opacity:1;stroke-dasharray:none"
       d="m 291.60827,440.44306 c 0,0 3.2065,2.52109 4.0898,4.5566 0.8833,2.0355 0.4055,7.1403 0.4055,7.1403 0,0 0.1289,-0.28896 0.2767,-0.76037 0.3415,0.55677 2.048,3.40787 2.3172,5.12539 0.2981,1.90132 -1.2168,5.28123 -1.2168,5.28123 0,0 2.47,-2.43407 2.2247,-4.53887 -0.2286,-1.96135 -5.3136,-4.31849 -5.6954,-4.80001 0.4449,-1.42533 3.5984,-5.55273 2.9324,-7.27755 -0.8935,-2.31397 -5.334,-4.72671 -5.334,-4.72671 z"
       id="path3877-2-3"
       inkscape:connector-curvature="0"
       sodipodi:nodetypes="csccscscscc"
       inkscape:export-filename="E:\TitanLogo-v4.png"
       inkscape:export-xdpi="299.90149"
       inkscape:export-ydpi="299.90149" />
    <path
       style="fill:#ffffff;fill-opacity:1;stroke:#ffffff;stroke-width:1.5;stroke-linecap:round;stroke-linejoin:miter;stroke-miterlimit:4;stroke-opacity:1;stroke-dasharray:none"
       d="m 336.80997,446.63708 c 0.467,0.0729 0.9368,0.19722 1.3718,0.36843 3.7995,1.49451 6.7231,2.76939 6.7231,2.76939 -4.7723,-2.48134 -3.1096,-2.95205 -8.0949,-3.13782 z m 0,0 c -5.9491,-0.41428 -10.2538,3.46755 -10.2538,3.46755 3.004,-4.11685 8.7848,-3.14728 10.2538,-3.46755 z m 3.1368,1.40296 c -1.4247,-0.60479 -3.0852,0.0705 -3.6904,1.50074 -0.6051,1.4302 0.078,3.06486 1.5028,3.66965 1.4245,0.60475 3.0724,-0.0403 3.6774,-1.47053 0.6052,-1.43021 -0.065,-3.09508 -1.4898,-3.69986 z"
       id="path3898-4-9"
       inkscape:connector-curvature="0"
       sodipodi:nodetypes="csccscscsssc"
       inkscape:export-filename="E:\TitanLogo-v4.png"
       inkscape:export-xdpi="299.90149"
       inkscape:export-ydpi="299.90149" />
    <path
       style="fill:#656d6a;fill-opacity:1;stroke:#ffffff;stroke-width:1.99156392;stroke-linecap:round;stroke-linejoin:miter;stroke-miterlimit:4;stroke-opacity:1;stroke-dasharray:none"
       d="m 356.20557,447.5844 c 0,0 -1.4829,9.87261 5.6535,17.86216 -0.5411,7.79418 -5.8947,3.37211 -10.0192,3.28321 -5.6288,2.58673 -4.8022,-3.33407 -4.8022,-3.33407"
       id="path3937-0-1"
       inkscape:connector-curvature="0"
       sodipodi:nodetypes="cccc"
       inkscape:export-filename="E:\TitanLogo-v4.png"
       inkscape:export-xdpi="299.90149"
       inkscape:export-ydpi="299.90149" />
    <path
       style="fill:#ffffff;fill-opacity:1;stroke:#ffffff;stroke-width:1.29180682;stroke-opacity:1"
       d="m 324.38767,443.7736 c 0,0 7.3494,-0.68241 13.3504,0.28027 6.001,0.96275 9.3176,2.9996 9.3176,2.9996 0,0 -0.8192,-3.08757 -7.9649,-4.75552 -3.5467,-0.14826 -4.1658,-0.35662 -14.7031,1.47565 z"
       id="path3857-8-5-1-8"
       inkscape:connector-curvature="0"
       sodipodi:nodetypes="czccc"
       inkscape:export-filename="E:\TitanLogo-v4.png"
       inkscape:export-xdpi="299.90149"
       inkscape:export-ydpi="299.90149" />
    <path
       style="fill:#ffffff;fill-opacity:1;stroke:#ffffff;stroke-width:1.13135207;stroke-opacity:1"
       d="m 377.53907,442.17008 c 0,0 -5.6117,-0.77806 -10.2567,0.10473 -4.6449,0.88284 -7.2742,2.87366 -7.2742,2.87366 0,0 0.7563,-3.07307 6.3088,-4.64522 2.7278,-0.10148 3.2115,-0.30151 11.2221,1.66683 z"
       id="path3857-8-5-5-5-8"
       inkscape:connector-curvature="0"
       sodipodi:nodetypes="czccc"
       inkscape:export-filename="E:\TitanLogo-v4.png"
       inkscape:export-xdpi="299.90149"
       inkscape:export-ydpi="299.90149" />
    <path
       style="fill:#ffffff;fill-opacity:1;stroke:#ffffff;stroke-width:1px;stroke-linecap:butt;stroke-linejoin:miter;stroke-opacity:1"
       d="m 397.40867,698.66697 c -19.1825,-3.24373 -36.4186,9.57504 -77.6308,81.23085 11.0103,-26.48165 20.3887,-46.88073 28.9122,-60.26678 8.5234,-13.38605 35.3485,-23.46227 35.3485,-23.46227 0,0 -33.2438,5.66039 -48.2015,17.3958 -14.9577,11.73541 -28.8604,34.77174 -28.8604,34.77174 0,0 9.0059,-26.99266 32.6037,-43.19716 23.5979,-16.20449 56.9691,-8.2782 56.9691,-8.2782 0,0 -3.7384,0.3699 0.8592,1.80602 z"
       id="path3975-9-6"
       inkscape:connector-curvature="0"
       sodipodi:nodetypes="cczczczcc"
       inkscape:export-filename="E:\TitanLogo-v4.png"
       inkscape:export-xdpi="299.90149"
       inkscape:export-ydpi="299.90149" />
    <path
       style="fill:#747474;fill-opacity:1;stroke:#ffffff;stroke-width:1.18681407;stroke-miterlimit:4;stroke-opacity:1;stroke-dasharray:none"
       d="m 343.78277,469.25427 c 0,0 -3.1046,2.24079 -5.2204,5.01463 -2.1158,2.77374 -2.87,5.24152 -2.87,5.24152 0,0 -1.6446,3.71046 0.7308,0.0835 1.3665,-1.37789 2.6728,-7.65729 7.3596,-10.33973 z"
       id="path3857-8-0-1-8"
       inkscape:connector-curvature="0"
       sodipodi:nodetypes="czccc"
       inkscape:export-filename="E:\TitanLogo-v4.png"
       inkscape:export-xdpi="299.90149"
       inkscape:export-ydpi="299.90149" />
    <path
       style="fill:#ffffff;fill-opacity:1;stroke:#ffffff;stroke-width:1.5;stroke-linecap:round;stroke-linejoin:miter;stroke-miterlimit:4;stroke-opacity:1;stroke-dasharray:none"
       d="m 367.04187,446.23966 c -0.4682,0.0652 -0.94,0.18165 -1.3778,0.3456 -3.8238,1.43118 -5.7075,2.30376 -5.7075,2.30376 4.8128,-2.40173 2.0976,-2.54643 7.0853,-2.64936 z m 0,0 c 4.7052,1.4346 5.4447,3.13741 5.4447,3.13741 -3.9352,-2.66619 -6.8829,-3.57589 -5.4447,-3.13741 z m -3.1597,1.35066 c 1.4345,-0.58105 3.0836,0.12178 3.6649,1.56183 0.5813,1.44006 -0.129,3.06314 -1.5635,3.64418 -1.4344,0.58101 -3.0713,-0.0913 -3.6525,-1.53141 -0.5814,-1.44007 0.1167,-3.09357 1.5511,-3.6746 z"
       id="path3898-6-3-30"
       inkscape:connector-curvature="0"
       sodipodi:nodetypes="csccscscsssc"
       inkscape:export-filename="E:\TitanLogo-v4.png"
       inkscape:export-xdpi="299.90149"
       inkscape:export-ydpi="299.90149" />
    <g
       id="g3468"
       transform="matrix(2,0,0,2,-898.02562,-762.4484)">
      <g
         id="g3454">
        <path
           style="fill:#656d6a;fill-opacity:1;stroke:#ffffff;stroke-width:3.11018538;stroke-linecap:round;stroke-linejoin:round;stroke-miterlimit:4;stroke-opacity:1;stroke-dasharray:none"
           d="m 851.74737,774.10573 c 0,0 -0.088,1.267 1.701,8.58019 10.0431,7.47204 25.0345,20.86557 33.0916,26.44755 17.0169,3.14691 28.8273,-4.13204 32.1837,-5.76129 0.9965,-5.06852 0.4704,-12.57979 -1.0727,-17.38621 3.2486,-4.73167 2.1718,-8.17575 6.1534,-15.50813 3.9816,-7.3324 -0.9958,-15.85431 -0.9958,-15.85431 5.501,-5.38658 9.8661,-12.14801 4.9045,-17.30239 0,0 1.248,-14.58678 -7.9446,-22.63525 -9.1927,-8.04845 -20.3185,-15.65248 -49.8373,-10.9844 -29.5187,4.66808 -27.6264,26.34566 -25.352,40.96143"
           id="path3831-0-7-6"
           inkscape:connector-curvature="0"
           sodipodi:nodetypes="ccccczcczzc"
           inkscape:export-filename="E:\TitanLogo-v4.png"
           inkscape:export-xdpi="299.90149"
           inkscape:export-ydpi="299.90149" />
        <path
           style="fill:#656d6a;fill-opacity:1;stroke:#ffffff;stroke-width:3;stroke-linecap:round;stroke-linejoin:miter;stroke-miterlimit:4;stroke-opacity:1;stroke-dasharray:none"
           d="m 850.97507,771.62372 c 0,0 2.3979,7.53852 0.358,10.82445 -2.0399,3.28593 -6.248,8.06149 -9.217,5.53397 -0.01,-1.35126 1.0108,-5.81258 -0.1763,-9.17316 -1.1871,-3.3606 -4.8227,2.8123 -4.8259,0.0333 0,-2.77904 -0.6898,-8.47851 0.594,-12.76845 1.2837,-4.28993 -5.3986,-12.47062 -5.1786,-18.31308 0.22,-5.84246 3.6564,-6.64572 6.0417,-13.2049 -5.6213,-6.67492 -6.0082,-17.59806 7.2573,-26.37652 3.2121,-9.33598 5.3785,-15.82775 21.2128,-11.54297 5.7914,-11.31653 17.6177,-14.16765 30.529,-2.54678 12.9988,-8.7799 25.0012,-1.45604 26.8646,9.55905 10.497,3.20579 9.6603,6.5029 10.9232,11.49241 2.6166,3.66956 -0.1742,7.1449 0.028,12.36528 1.5557,3.90044 5.514,9.25035 5.514,9.25035 -10.6186,-0.68993 -12.4662,-3.24192 -16.5194,-7.86385 0.1072,5.94837 -1.3958,5.89307 -3.2637,12.83757 -2.6422,-3.3334 -7.2578,-13.8118 -9.1616,-19.81791 -1.5844,7.49683 -0.7924,19.21368 -7.489,24.2494 -1.611,-6.77007 -8.368,-20.20782 -10.4994,-22.7578 -3.1602,4.75103 -4.4605,17.25351 -10.5626,19.56538 -2.1843,-5.9778 -1.8519,-13.6021 -5.5604,-19.28329 -0.4612,8.78573 -7.7068,13.3653 -12.5931,10.77831 l 0.036,12.84254 c 0,0 -0.1919,12.46746 -3.6313,16.94921 -3.0324,-2.41609 -7.8249,-8.56526 -5.3271,-15.12097 0.2307,-5.97023 -3.3184,-12.00069 -3.3184,-12.00069"
           id="path3837-2-8-3"
           inkscape:connector-curvature="0"
           sodipodi:nodetypes="ccccccccccccccccccccccccccc"
           inkscape:export-filename="E:\TitanLogo-v4.png"
           inkscape:export-xdpi="299.90149"
           inkscape:export-ydpi="299.90149" />
        <path
           style="fill:#656d6a;fill-opacity:1;stroke:#ffffff;stroke-width:2.09760833;stroke-linecap:round;stroke-linejoin:round;stroke-miterlimit:4;stroke-opacity:1;stroke-dasharray:none"
           d="m 852.23317,747.27983 c 0,0 -5.0692,-10.26935 -11.0505,-4.18095 -5.9814,6.08839 -1.5143,14.94208 1.7171,18.26864 1.7654,6.30559 -1.6529,14.39062 5.2576,15.57668 6.9105,1.18603 7.2611,-9.43718 7.2611,-9.43718"
           id="path3831-4-2-5-7"
           inkscape:connector-curvature="0"
           sodipodi:nodetypes="czczc"
           inkscape:export-filename="E:\TitanLogo-v4.png"
           inkscape:export-xdpi="299.90149"
           inkscape:export-ydpi="299.90149" />
        <path
           style="fill:#ffffff;fill-opacity:1;stroke:#ffffff;stroke-width:1.55336463;stroke-miterlimit:4;stroke-opacity:1;stroke-dasharray:none"
           d="m 889.12507,792.62532 c 0,0 8.2336,-2.55134 14.8426,-2.83557 6.6089,-0.28424 9.8985,1.38397 9.8985,1.38397 0,0 -4.8461,-2.26207 -10.0418,-2.3963 -9.8707,0.98164 -13.3223,3.32098 -14.6993,3.8479 z"
           id="path3857-3-6-8"
           inkscape:connector-curvature="0"
           sodipodi:nodetypes="czccc"
           inkscape:export-filename="E:\TitanLogo-v4.png"
           inkscape:export-xdpi="299.90149"
           inkscape:export-ydpi="299.90149" />
        <path
           style="fill:#747474;fill-opacity:1;stroke:#ffffff;stroke-width:1.52848673;stroke-miterlimit:4;stroke-opacity:1;stroke-dasharray:none"
           d="m 895.83677,798.30497 c 0,0 3.124,-0.87457 5.9351,-0.82927 2.811,0.0453 4.6224,0.82214 4.6224,0.82214 0,0 -0.8902,-1.48311 -4.3267,-1.79765 -1.5893,0.1835 -1.898,0.12431 -6.2308,1.80478 z"
           id="path3857-8-8-3-8"
           inkscape:connector-curvature="0"
           sodipodi:nodetypes="czccc"
           inkscape:export-filename="E:\TitanLogo-v4.png"
           inkscape:export-xdpi="299.90149"
           inkscape:export-ydpi="299.90149" />
        <path
           style="fill:#ffffff;fill-opacity:1;stroke:#ffffff;stroke-width:1;stroke-linecap:butt;stroke-linejoin:miter;stroke-miterlimit:4;stroke-opacity:1;stroke-dasharray:none"
           d="m 843.80497,747.76569 c 0,0 3.2065,2.52109 4.0898,4.5566 0.8833,2.0355 0.4055,7.1403 0.4055,7.1403 0,0 0.1289,-0.28896 0.2767,-0.76037 0.3415,0.55677 2.048,3.40787 2.3172,5.12539 0.2981,1.90132 -1.2168,5.28123 -1.2168,5.28123 0,0 2.47,-2.43407 2.2247,-4.53887 -0.2286,-1.96135 -5.3136,-4.31849 -5.6954,-4.80001 0.4449,-1.42533 3.5984,-5.55273 2.9324,-7.27755 -0.8935,-2.31397 -5.334,-4.72671 -5.334,-4.72671 z"
           id="path3877-2-3-2"
           inkscape:connector-curvature="0"
           sodipodi:nodetypes="csccscscscc"
           inkscape:export-filename="E:\TitanLogo-v4.png"
           inkscape:export-xdpi="299.90149"
           inkscape:export-ydpi="299.90149" />
        <path
           style="fill:#ffffff;fill-opacity:1;stroke:#ffffff;stroke-width:1.5;stroke-linecap:round;stroke-linejoin:miter;stroke-miterlimit:4;stroke-opacity:1;stroke-dasharray:none"
           d="m 889.00667,753.95971 c 0.467,0.0729 0.9368,0.19722 1.3718,0.36843 3.7995,1.49451 6.7231,2.76939 6.7231,2.76939 -4.7723,-2.48134 -3.1096,-2.95205 -8.0949,-3.13782 z m 0,0 c -5.9491,-0.41428 -10.2538,3.46755 -10.2538,3.46755 3.004,-4.11685 8.7848,-3.14728 10.2538,-3.46755 z m 3.1368,1.40296 c -1.4247,-0.60479 -3.0852,0.0705 -3.6904,1.50074 -0.6051,1.4302 0.078,3.06486 1.5028,3.66965 1.4245,0.60475 3.0724,-0.0403 3.6774,-1.47053 0.6052,-1.43021 -0.065,-3.09508 -1.4898,-3.69986 z"
           id="path3898-4-9-9"
           inkscape:connector-curvature="0"
           sodipodi:nodetypes="csccscscsssc"
           inkscape:export-filename="E:\TitanLogo-v4.png"
           inkscape:export-xdpi="299.90149"
           inkscape:export-ydpi="299.90149" />
        <path
           style="fill:#656d6a;fill-opacity:1;stroke:#ffffff;stroke-width:1.99156392;stroke-linecap:round;stroke-linejoin:miter;stroke-miterlimit:4;stroke-opacity:1;stroke-dasharray:none"
           d="m 908.40227,754.90703 c 0,0 -1.4829,9.87261 5.6535,17.86216 -0.5411,7.79418 -5.8947,3.37211 -10.0192,3.28321 -5.6288,2.58673 -4.8022,-3.33407 -4.8022,-3.33407"
           id="path3937-0-1-1"
           inkscape:connector-curvature="0"
           sodipodi:nodetypes="cccc"
           inkscape:export-filename="E:\TitanLogo-v4.png"
           inkscape:export-xdpi="299.90149"
           inkscape:export-ydpi="299.90149" />
        <path
           style="fill:#ffffff;fill-opacity:1;stroke:#ffffff;stroke-width:1.29180682;stroke-opacity:1"
           d="m 876.58437,751.09623 c 0,0 7.3494,-0.68241 13.3504,0.28027 6.001,0.96275 9.3176,2.9996 9.3176,2.9996 0,0 -0.8192,-3.08757 -7.9649,-4.75552 -3.5467,-0.14826 -4.1658,-0.35662 -14.7031,1.47565 z"
           id="path3857-8-5-1-8-3"
           inkscape:connector-curvature="0"
           sodipodi:nodetypes="czccc"
           inkscape:export-filename="E:\TitanLogo-v4.png"
           inkscape:export-xdpi="299.90149"
           inkscape:export-ydpi="299.90149" />
        <path
           style="fill:#ffffff;fill-opacity:1;stroke:#ffffff;stroke-width:1.13135207;stroke-opacity:1"
           d="m 929.73577,749.49271 c 0,0 -5.6117,-0.77806 -10.2567,0.10473 -4.6449,0.88284 -7.2742,2.87366 -7.2742,2.87366 0,0 0.7563,-3.07307 6.3088,-4.64522 2.7278,-0.10148 3.2115,-0.30151 11.2221,1.66683 z"
           id="path3857-8-5-5-5-8-5"
           inkscape:connector-curvature="0"
           sodipodi:nodetypes="czccc"
           inkscape:export-filename="E:\TitanLogo-v4.png"
           inkscape:export-xdpi="299.90149"
           inkscape:export-ydpi="299.90149" />
        <path
           style="fill:#747474;fill-opacity:1;stroke:#ffffff;stroke-width:1.18681407;stroke-miterlimit:4;stroke-opacity:1;stroke-dasharray:none"
           d="m 895.97947,776.5769 c 0,0 -3.1046,2.24079 -5.2204,5.01463 -2.1158,2.77374 -2.87,5.24152 -2.87,5.24152 0,0 -1.6446,3.71046 0.7308,0.0835 1.3665,-1.37789 2.6728,-7.65729 7.3596,-10.33973 z"
           id="path3857-8-0-1-8-9"
           inkscape:connector-curvature="0"
           sodipodi:nodetypes="czccc"
           inkscape:export-filename="E:\TitanLogo-v4.png"
           inkscape:export-xdpi="299.90149"
           inkscape:export-ydpi="299.90149" />
        <path
           style="fill:#ffffff;fill-opacity:1;stroke:#ffffff;stroke-width:1.5;stroke-linecap:round;stroke-linejoin:miter;stroke-miterlimit:4;stroke-opacity:1;stroke-dasharray:none"
           d="m 919.23857,753.56229 c -0.4682,0.0652 -0.94,0.18165 -1.3778,0.3456 -3.8238,1.43118 -5.7075,2.30376 -5.7075,2.30376 4.8128,-2.40173 2.0976,-2.54643 7.0853,-2.64936 z m 0,0 c 4.7052,1.4346 5.4447,3.13741 5.4447,3.13741 -3.9352,-2.66619 -6.8829,-3.57589 -5.4447,-3.13741 z m -3.1597,1.35066 c 1.4345,-0.58105 3.0836,0.12178 3.6649,1.56183 0.5813,1.44006 -0.129,3.06314 -1.5635,3.64418 -1.4344,0.58101 -3.0713,-0.0913 -3.6525,-1.53141 -0.5814,-1.44007 0.1167,-3.09357 1.5511,-3.6746 z"
           id="path3898-6-3-30-8"
           inkscape:connector-curvature="0"
           sodipodi:nodetypes="csccscscsssc"
           inkscape:export-filename="E:\TitanLogo-v4.png"
           inkscape:export-xdpi="299.90149"
           inkscape:export-ydpi="299.90149" />
      </g>
    </g>
  </g>
</svg>
