<?xml version="1.0" encoding="utf-8"?>
<!-- Generator: Adobe Illustrator 18.1.1, SVG Export Plug-In . SVG Version: 6.00 Build 0)  -->
<svg version="1.1" xmlns="http://www.w3.org/2000/svg" xmlns:xlink="http://www.w3.org/1999/xlink" x="0px" y="0px" width="128px"
	 height="128px" viewBox="0 0 128 128" style="enable-background:new 0 0 128 128;" xml:space="preserve">
<g id="BASE">
	<linearGradient id="SVGID_1_" gradientUnits="userSpaceOnUse" x1="63.9997" y1="7.0336" x2="63.9997" y2="120.7894">
		<stop  offset="0" style="stop-color:#4387FD"/>
		<stop  offset="1" style="stop-color:#4683EA"/>
	</linearGradient>
	<path style="fill:url(#SVGID_1_);" d="M27.7906,115.2166L1.54,69.7493c-2.0541-3.5578-2.0541-7.9412,0-11.499l26.2506-45.4672
		c2.0541-3.5578,5.8503-5.7495,9.9585-5.7495h52.5012c4.1082,0,7.9044,2.1917,9.9585,5.7495l26.2506,45.4672
		c2.0541,3.5578,2.0541,7.9412,0,11.499l-26.2506,45.4672c-2.0541,3.5578-5.8503,5.7495-9.9585,5.7495H37.7491
		C33.6409,120.9661,29.8447,118.7744,27.7906,115.2166z"/>
</g>
<g id="shadow">
	<g>
		<defs>
			<path id="SVGID_5_" d="M27.7908,115.2166L1.5403,69.7493c-2.0541-3.5578-2.0541-7.9412,0-11.499l26.2505-45.4672
				c2.0541-3.5578,5.8502-5.7495,9.9585-5.7495h52.501c4.1082,0,7.9044,2.1917,9.9585,5.7495l26.2505,45.4672
				c2.0541,3.5578,2.0541,7.9412,0,11.499l-26.2505,45.4672c-2.0541,3.5578-5.8503,5.7495-9.9585,5.7495h-52.501
				C33.641,120.9661,29.8449,118.7744,27.7908,115.2166z"/>
		</defs>
		<clipPath id="SVGID_2_">
			<use xlink:href="#SVGID_5_"  style="overflow:visible;"/>
		</clipPath>
		<polygon style="opacity:0.07;clip-path:url(#SVGID_2_);" points="124.7497,74.5832 90.9186,40.7521 89.67,50.6213 
			82.9531,43.9043 59.5517,34.3216 72.6304,47.4004 56.7914,39.9165 30.3743,52.3328 37.5414,59.4999 37.054,87.3042 
			71.6456,121.8957 97.6668,122.0415 		"/>
	</g>
</g>
<g id="art">
	<g>
		<g>
			<g>
				<path style="fill:#FFFFFF;" d="M83.6883,45.6573l0.02,20.6762c0.0004,0.4459-0.2373,0.8581-0.6234,1.081l-3.3552,1.9371
					l-0.0132-21.4004c-0.0005-0.8904-0.4758-1.7129-1.2468-2.1581L61.7778,36.156c-2.5924-1.496-4.2697-4.1985-4.4857-7.1587
					l25.1482,14.5021C83.2118,43.9443,83.6874,44.7668,83.6883,45.6573z"/>
			</g>
			<g>
				<path style="fill:#FFFFFF;" d="M89.7294,71.8792L71.8333,82.2346c-0.3859,0.2233-0.8617,0.2235-1.2479,0.0006l-3.3552-1.9371
					l18.5267-10.7116c0.7708-0.4457,1.2455-1.2685,1.2455-2.1588l0.0001-19.2741c-0.0006-2.993,1.5011-5.7969,3.9568-7.4641
					l0.0149,29.0301C90.9746,70.61,90.5002,71.4332,89.7294,71.8792z"/>
			</g>
			<g>
				<path style="fill:#FFFFFF;" d="M70.0411,90.2219L52.125,79.9011c-0.3864-0.2226-0.6245-0.6345-0.6245-1.0804v-3.8743
					l18.5398,10.6888c0.7713,0.4447,1.7213,0.4444,2.4923-0.0008l16.6919-9.637c2.5917-1.4971,5.7708-1.5985,8.4425-0.3054
					L72.5338,90.22C71.7628,90.6657,70.8127,90.6664,70.0411,90.2219z"/>
			</g>
			<g>
				<path style="fill:#FFFFFF;" d="M44.3117,82.3427l-0.02-20.6762c-0.0004-0.4459,0.2373-0.8581,0.6234-1.081l3.3552-1.9371
					l0.0132,21.4004c0.0005,0.8904,0.4758,1.7129,1.2468,2.1581l16.6918,9.6371c2.5924,1.496,4.2697,4.1985,4.4857,7.1587
					L45.5597,84.5005C44.7882,84.0557,44.3126,83.2332,44.3117,82.3427z"/>
			</g>
			<g>
				<path style="fill:#FFFFFF;" d="M38.2706,56.1208l17.8961-10.3554c0.3859-0.2233,0.8617-0.2235,1.2479-0.0006l3.3552,1.9371
					L42.2431,58.4135c-0.7708,0.4457-1.2455,1.2685-1.2455,2.1588l-0.0001,19.2741c0.0006,2.993-1.5011,5.7969-3.9568,7.4641
					l-0.0149-29.0301C37.0254,57.3899,37.4998,56.5668,38.2706,56.1208z"/>
			</g>
			<g>
				<path style="fill:#FFFFFF;" d="M57.9589,37.7781L75.875,48.0988c0.3864,0.2226,0.6245,0.6345,0.6245,1.0804v3.8743
					L57.9596,42.3647c-0.7713-0.4447-1.7213-0.4444-2.4924,0.0008l-16.6919,9.637c-2.5917,1.4971-5.7708,1.5985-8.4425,0.3054
					l25.1333-14.528C56.2371,37.3343,57.1873,37.3336,57.9589,37.7781z"/>
			</g>
		</g>
		<g>
			<path style="fill:#FFFFFF;" d="M63.9925,69.306c-0.2362,0-0.4737-0.0615-0.6855-0.1839l-11.8165-6.822v2.9759l12.502,7.2183
				l12.5027-7.2188v-2.9758L64.678,69.1222C64.4661,69.2445,64.2287,69.306,63.9925,69.306z"/>
			<path style="fill:#FFFFFF;" d="M64.678,75.2657c-0.2119,0.1224-0.4493,0.1839-0.6855,0.1839
				c-0.2362,0-0.4737-0.0615-0.6855-0.1839l-11.8165-6.8225v2.2013c0,0.4724,0.252,0.9088,0.6611,1.1449l11.1802,6.4549
				c0.409,0.2361,0.9131,0.2361,1.3221,0l11.1803-6.4549c0.409-0.2361,0.661-0.6726,0.661-1.1449v-2.2017L64.678,75.2657z"/>
			<path style="fill:#FFFFFF;" d="M63.9925,66.3508l12.5027-7.2181v-1.3981c0-0.4724-0.252-0.9088-0.661-1.1449l-11.1803-6.4549
				c-0.409-0.2362-0.9131-0.2362-1.3221,0l-11.1802,6.4549c-0.409,0.2361-0.6611,0.6726-0.6611,1.1449v1.3984L63.9925,66.3508z"/>
		</g>
	</g>
</g>
<g id="Guides" style="display:none;">
</g>
</svg>
