<svg xmlns="http://www.w3.org/2000/svg" viewBox="-40 10 934 760" width="100%" height="100%">
    <defs>
        <marker id="arrow-black" viewBox="0 0 10 10" refX="10" refY="5" markerWidth="6" markerHeight="6" orient="auto-start-reverse">
            <path d="M 0 0 L 10 5 L 0 10 Z" fill="#202124" />
        </marker>

        <marker id="arrow-grey" viewBox="0 0 10 10" refX="10" refY="5" markerWidth="6" markerHeight="6" orient="auto-start-reverse">
            <path d="M 0 0 L 10 5 L 0 10 Z" fill="#70757a" />
        </marker>

        <style>
            .node-rect {
            fill: #f8f9fa;
            stroke: #202124;
            stroke-width: 2px;
            rx: 20px;
            ry: 20px;
            }
            .node-text {
            font-family: system-ui, -apple-system, sans-serif;
            font-size: 14px;
            font-weight: bold;
            fill: #202124;
            text-anchor: middle;
            }
            .edge-text {
            font-family: system-ui, -apple-system, sans-serif;
            font-size: 12px;
            fill: #202124;
            }
            .edge-text-grey {
            font-family: system-ui, -apple-system, sans-serif;
            font-size: 12px;
            fill: #70757a;
            }
            .edge-path {
            fill: none;
            stroke: #202124;
            stroke-width: 2px;
            marker-end: url(#arrow-black);
            }
            .edge-path-grey {
            fill: none;
            stroke: #70757a;
            stroke-width: 2px;
            marker-end: url(#arrow-grey);
            }
            .label-bg {
            fill: #ffffff;
            rx: 3px;
            ry: 3px;
            }
        </style>
    </defs>

    <path class="edge-path" d="M 300 70 L 300 130" />
    <g>
        <rect class="label-bg" x="305" y="93" width="115" height="18" />
        <text class="edge-text" x="310" y="106" text-anchor="start">REGISTER_INDEX</text>
    </g>

    <path class="edge-path" d="M 390 150 Q 610 150, 610 230" />
    <g>
        <rect class="label-bg" x="470" y="128" width="140" height="18" />
        <text class="edge-text" x="540" y="141" text-anchor="middle">ENABLE_WRITE_ONLY</text>
    </g>

    <path class="edge-path" d="M 350 330 Q 350 250, 500 250" />
    <g>
        <rect class="label-bg" x="378" y="275" width="140" height="18" />
        <text class="edge-text" x="450" y="288" text-anchor="middle">ENABLE_WRITE_ONLY</text>
    </g>

    <path class="edge-path" d="M 650 270 Q 650 500, 390 500" />
    <g>
        <rect class="label-bg" x="572" y="458" width="110" height="18" />
        <text class="edge-text" x="580" y="471" text-anchor="start">DISABLE_INDEX</text>
    </g>

    <path class="edge-path" d="M 720 240 C 780 200, 780 300, 720 260" />
    <g>
        <rect class="label-bg" x="717" y="202" width="65" height="18" />
        <text class="edge-text" x="725" y="215" text-anchor="start">REINDEX</text>
    </g>

    <path class="edge-path" d="M 610 270 Q 610 350, 390 350" />
    <g>
        <rect class="label-bg" x="447" y="353" width="105" height="18" />
        <text class="edge-text" x="500" y="366" text-anchor="middle">ENABLE_INDEX</text>
    </g>

    <path class="edge-path" d="M 310 170 Q 360 250, 310 330" />
    <g>
        <rect class="label-bg" x="304" y="228" width="65" height="18" />
        <text class="edge-text" x="312" y="240" text-anchor="start">REINDEX</text>
    </g>

    <path class="edge-path-grey" d="M 270 170 Q 200 250, 270 330" />
    <g>
        <rect class="label-bg" x="180" y="242" width="100" height="18" />
        <text class="edge-text-grey" x="270" y="255" text-anchor="end">ENABLE_INDEX</text>
    </g>

    <path class="edge-path" d="M 210 340 C 140 300, 140 400, 210 360" />
    <g>
        <rect class="label-bg" x="147" y="307" width="65" height="18" />
        <text class="edge-text" x="205" y="320" text-anchor="end">REINDEX</text>
    </g>

    <path class="edge-path" d="M 270 360 Q 200 424, 280 480" />
    <g>
        <rect class="label-bg" x="180" y="417" width="105" height="18" />
        <text class="edge-text" x="280" y="430" text-anchor="end">DISABLE_INDEX</text>
    </g>

    <path class="edge-path" d="M 320 480 L 320 370" />
    <g>
        <rect class="label-bg" x="295" y="417" width="65" height="18" />
        <text class="edge-text" x="300" y="430" text-anchor="start">REINDEX</text>
    </g>

    <path class="edge-path-grey" d="M 370 480 Q 430 425, 370 370" />
    <g>
        <rect class="label-bg" x="375" y="417" width="105" height="18" />
        <text class="edge-text-grey" x="380" y="430" text-anchor="start">ENABLE_INDEX</text>
    </g>

    <path class="edge-path" d="M 210 505 C -20 505, -20 148, 208 148" />
    <g>
        <rect class="label-bg" x="25" y="487" width="115" height="18" />
        <text class="edge-text" x="82" y="500" text-anchor="middle">REGISTER_INDEX</text>
    </g>

    <path class="edge-path-grey" d="M 390 45 C 870 45, 870 490, 393 490" />
    <g>
        <rect class="label-bg" x="560" y="28" width="105" height="18" />
        <text class="edge-text-grey" x="612" y="41" text-anchor="middle">DISABLE_INDEX</text>
    </g>

    <path class="edge-path" d="M 270 520 Q 220 575, 270 630" />
    <g>
        <rect class="label-bg" x="180" y="567" width="110" height="18" />
        <text class="edge-text" x="280" y="580" text-anchor="end">DISCARD_INDEX</text>
    </g>

    <path class="edge-path-grey" d="M 330 520 Q 380 575, 330 630" />
    <g>
        <rect class="label-bg" x="310" y="567" width="125" height="18" />
        <text class="edge-text-grey" x="325" y="580" text-anchor="start">MARK_DISCARDED</text>
    </g>

    <path class="edge-path" d="M 300 670 L 300 735" />
    <g>
        <rect class="label-bg" x="305" y="698" width="85" height="18" />
        <text class="edge-text" x="310" y="711" text-anchor="start">DROP_INDEX</text>
    </g>
    <circle cx="300" cy="740" r="5" fill="#202124" />

    <path class="edge-path" d="M 210 140 C 110 140, 110 640, 210 640" />
    <g>
        <rect class="label-bg" x="80" y="457" width="110" height="18" />
        <text class="edge-text" x="135" y="470" text-anchor="middle">DISCARD_INDEX</text>
    </g>

    <path class="edge-path-grey" d="M 210 160 C 40 160, 40 660, 210 660" />
    <g>
        <rect class="label-bg" x="20" y="417" width="125" height="18" />
        <text class="edge-text-grey" x="83" y="430" text-anchor="middle">MARK_DISCARDED</text>
    </g>


    <rect class="node-rect" x="210" y="30" width="180" height="40" />
    <text class="node-text" x="300" y="50" dy="5">INSTALLED</text>

    <rect class="node-rect" x="210" y="130" width="180" height="40" />
    <text class="node-text" x="300" y="150" dy="5">REGISTERED</text>

    <rect class="node-rect" x="500" y="230" width="220" height="40" />
    <text class="node-text" x="610" y="250" dy="5">WRITE_ONLY_ENABLED</text>

    <rect class="node-rect" x="210" y="330" width="180" height="40" />
    <text class="node-text" x="300" y="350" dy="5">ENABLED</text>

    <rect class="node-rect" x="210" y="480" width="180" height="40" />
    <text class="node-text" x="300" y="500" dy="5">DISABLED</text>

    <rect class="node-rect" x="210" y="630" width="180" height="40" />
    <text class="node-text" x="300" y="650" dy="5">DISCARDED</text>

</svg>
