<svg id="Layer_1" data-name="Layer 1" xmlns="http://www.w3.org/2000/svg" viewBox="0 0 100 100"><defs><style>.cls-1{fill:#fff;}</style></defs><title>JanusGraph logomark black rev RGB</title><path class="cls-1" d="M86,49.4A6.24,6.24,0,0,0,74,46.85H56.14a6.23,6.23,0,1,0,.08,4.93H74A6.26,6.26,0,0,0,77,55,27.17,27.17,0,0,1,55.82,75.89a6.24,6.24,0,1,0,.59,4.91A32.12,32.12,0,0,0,82,55.21,6.24,6.24,0,0,0,86,49.4Z"/><path class="cls-1" d="M39.64,79.29a2.46,2.46,0,0,1-.9-.17A32,32,0,1,1,80.07,37a2.46,2.46,0,0,1-4.55,1.89,27.11,27.11,0,1,0-35,35.61,2.47,2.47,0,0,1-.9,4.76Z"/></svg>